<svg xmlns="http://www.w3.org/2000/svg" fill="none" aria-hidden="true" viewBox="0 0 24 24"
  role="img">
  <path vector-effect="non-scaling-stroke" stroke="var(--icon-color, #001e00)"
    stroke-linecap="round" stroke-linejoin="round" stroke-width="1.5"
    d="M6 10.88H4a1 1 0 00-1 1v4a1 1 0 001 1h2a1 1 0 001-1v-4a1 1 0 00-1-1zm13.678 0h-2a1 1 0 00-1 1v4a1 1 0 001 1h2a1 1 0 001-1v-4a1 1 0 00-1-1zm-.34 0a7.75 7.75 0 00-7.5-7.88 7.75 7.75 0 00-7.499 7.88"></path>
  <path vector-effect="non-scaling-stroke" stroke="var(--icon-color, #001e00)"
    stroke-linecap="round" stroke-linejoin="round" stroke-width="1.5"
    d="M13.309 19.699h4.33a2 2 0 001.999-2v-.82"></path>
  <path vector-effect="non-scaling-stroke" stroke="var(--icon-color, #001e00)"
    stroke-linecap="round" stroke-linejoin="round" stroke-width="1.5"
    d="M11.839 21a1.5 1.5 0 100-3 1.5 1.5 0 000 3z"></path>
</svg>