<svg xmlns="http://www.w3.org/2000/svg" aria-hidden="true" data-name="Layer 1" viewBox="0 0 24 24"
  role="img">
  <line x1="14.74" x2="18.45" y1="5.55" y2="9.26" fill="none" vector-effect="non-scaling-stroke"
    stroke="var(--icon-color, #001e00)" stroke-linecap="round" stroke-linejoin="round"
    stroke-width="1.5"></line>
  <path fill="none" vector-effect="non-scaling-stroke" stroke="var(--icon-color, #001e00)"
    stroke-linecap="round" stroke-linejoin="round" stroke-width="1.5"
    d="M11.16 9.14l-1.7-1.7a3.32 3.32 0 00-4.24-4.25l1.62 1.63-2 2-1.65-1.6a3.32 3.32 0 004.25 4.24l1.7 1.7"></path>
  <path fill="none" vector-effect="non-scaling-stroke" stroke="var(--icon-color, #001e00)"
    stroke-linecap="round" stroke-linejoin="round" stroke-width="1.5"
    d="M11.21 9.09l5.32-5.32a2.6 2.6 0 013.7 0h0a2.6 2.6 0 010 3.7l-12.4 12.4a2.56 2.56 0 01-1.34.72L4.57 21A1.3 1.3 0 013 19.43l.38-1.92a2.56 2.56 0 01.72-1.34z"></path>
  <path fill="none" vector-effect="non-scaling-stroke" stroke="var(--icon-color, #001e00)"
    stroke-linecap="round" stroke-linejoin="round" stroke-width="1.5"
    d="M12.84 14.86l1.7 1.7a3.32 3.32 0 004.24 4.25l-1.62-1.63 2-2 1.63 1.62a3.32 3.32 0 00-4.25-4.24l-1.7-1.7"></path>
</svg>