<?xml version="1.0" encoding="UTF-8" standalone="no"?>
<!-- Created with Inkscape (http://www.inkscape.org/) -->

<svg
   width="105mm"
   height="101mm"
   viewBox="0 0 105 101"
   version="1.1"
   id="svg5"
   inkscape:version="1.1.1 (3bf5ae0, 2021-09-20)"
   sodipodi:docname="coffee.svg"
   xmlns:inkscape="http://www.inkscape.org/namespaces/inkscape"
   xmlns:sodipodi="http://sodipodi.sourceforge.net/DTD/sodipodi-0.dtd"
   xmlns="http://www.w3.org/2000/svg"
   xmlns:svg="http://www.w3.org/2000/svg">
  <sodipodi:namedview
     id="namedview7"
     pagecolor="#ffffff"
     bordercolor="#999999"
     borderopacity="1"
     inkscape:pageshadow="0"
     inkscape:pageopacity="0"
     inkscape:pagecheckerboard="0"
     inkscape:document-units="px"
     showgrid="false"
     inkscape:zoom="1.0633188"
     inkscape:cx="428.37577"
     inkscape:cy="216.77413"
     inkscape:window-width="1846"
     inkscape:window-height="1016"
     inkscape:window-x="74"
     inkscape:window-y="27"
     inkscape:window-maximized="1"
     inkscape:current-layer="layer2" />
  <defs
     id="defs2" />
  <g
     inkscape:groupmode="layer"
     id="layer2"
     inkscape:label="Drawing"
     style="display:inline;opacity:0.959528;mix-blend-mode:lighten">
    <path
       style="fill:#000000;fill-opacity:0.509804;stroke:none;stroke-width:0.264583px;stroke-linecap:butt;stroke-linejoin:miter;stroke-opacity:1"
       d="m 26.412834,35.583755 c 0,0 -19.6196329,3.971859 -16.386115,11.103375 3.233521,7.131516 10.833077,8.074229 11.857236,8.851093 1.02416,0.776867 1.631453,1.075426 3.295116,2.053035 1.663666,0.977611 -1.765324,-0.03085 6.13927,1.53766 7.904597,1.568506 29.21684,2.344089 33.634514,1.318932 4.417672,-1.025157 9.385692,-2.657173 9.939339,-3.049738 0.553657,-0.392565 12.417618,-3.695081 13.777902,-5.929858 C 90.030377,49.233477 94.8258,44.242041 87.519672,40.46205 80.213544,36.682059 71.384032,34.803668 71.384032,34.803668 L 71.9426,33.109771 c 0,0 11.689333,-2.141124 13.814511,-7.545447 C 87.882299,20.160003 88.360426,8.960495 76.647725,12.617271 72.882574,10.210526 69.617277,6.762548 61.488817,5.9783079 53.360356,5.1940678 46.104055,4.2708799 39.890894,5.2341956 c -6.213157,0.9633157 -21.037505,4.21214 -20.920086,8.5352804 0.11742,4.323139 2.361954,3.939413 2.361954,3.939413 0,0 0.460058,10.987495 5.080072,17.874866 z"
       id="path2959" />
    <path
       style="fill:#ffffff;fill-opacity:1;stroke:none;stroke-width:0.264583px;stroke-linecap:butt;stroke-linejoin:miter;stroke-opacity:1"
       d="m 39.347768,33.162532 c 0,0 0.320434,-8.250852 9.592268,-8.848937 9.271831,-0.598085 9.134232,10.813558 9.134232,10.813558 0,0 -2.004827,8.615903 -9.726877,8.178607 -7.722053,-0.437295 -9.0399,-7.10864 -8.999623,-10.143228 z"
       id="path3381" />
    <path
       style="fill:#000000;fill-opacity:0.509804;stroke:none;stroke-width:0.264583px;stroke-linecap:butt;stroke-linejoin:miter;stroke-opacity:1"
       d="m 44.297342,29.658372 c 0,0 -3.170497,0.189592 -0.444902,-1.443789 2.725595,-1.633384 2.594734,-1.853319 4.769403,-1.54541 2.174671,0.307908 3.515299,0.509193 3.882964,0.55318 0.367668,0.04399 -0.137866,-0.102031 1.194911,0.883023 1.332778,0.985057 2.153939,3.505314 1.513946,5.167514 -0.639995,1.662199 -1.040527,1.456626 -1.12795,2.889512 -0.08742,1.432888 -1.576597,2.058244 -2.354403,0.519766 -0.777809,-1.538478 0.591455,-1.931771 0.06442,-3.22965 -0.527032,-1.297877 -1.652807,-1.315434 -2.206109,-0.938078 -0.553305,0.377354 -1.007208,1.10449 -1.094632,1.639004 -0.08742,0.534511 -1.41682,0.980781 -1.41682,0.980781 0,0 0.427958,-1.35918 0.259056,-2.220409 -0.168899,-0.861232 0.02236,-0.97663 -1.097534,-1.193335 -1.119888,-0.216701 0.113697,-0.160851 0.191834,-0.816681 0.07814,-0.655831 -0.800569,-1.945815 -2.134184,-1.245428 z"
       id="path3520" />
    <ellipse
       style="opacity:0.721014;fill:none;stroke-width:0.264583"
       id="path960"
       cx="44.682785"
       cy="32.206451"
       rx="3.9746897"
       ry="4.8839412" />
    <ellipse
       style="opacity:0.721014;fill:none;stroke-width:0.264583"
       id="path1064"
       cx="34.138321"
       cy="28.41637"
       rx="3.748368"
       ry="3.6555293" />
    <ellipse
       style="opacity:0.721014;fill:none;stroke-width:0.264583"
       id="path1066"
       cx="36.219616"
       cy="122.35802"
       rx="3.8534989"
       ry="2.8120434" />
    <ellipse
       style="opacity:0.721014;fill:none;stroke-width:0.264583"
       id="path1274"
       cx="20.68697"
       cy="58.347191"
       rx="3.0102375"
       ry="4.8595691" />
    <ellipse
       style="opacity:0.721014;fill:none;stroke-width:0.264583"
       id="path1276"
       cx="30.181545"
       cy="130.34683"
       rx="6.1722398"
       ry="6.3619614" />
    <ellipse
       style="opacity:0.721014;fill:none;stroke-width:0.264583"
       id="path1278"
       cx="46.468468"
       cy="128.62569"
       rx="3.0081832"
       ry="2.2098806" />
    <path
       style="mix-blend-mode:lighten;fill:#ffffff;fill-opacity:1;stroke:none;stroke-width:0.264583px;stroke-linecap:butt;stroke-linejoin:miter;stroke-opacity:1"
       d="m 28.094036,36.563087 c 0,0 -14.627932,2.32927 -17.052264,8.508375 -2.4243341,6.179106 18.067293,12.921264 29.116079,12.292564 11.048786,-0.628698 26.006233,-1.823768 8.602941,-2.205834 C 31.3575,54.776125 17.34283,51.163287 20.844892,44.907505 24.346954,38.651723 31.211407,40.683649 31.211407,40.683649 Z"
       id="path1407" />
    <path
       style="fill:#ffffff;fill-opacity:1;stroke:none;stroke-width:0.264583px;stroke-linecap:butt;stroke-linejoin:miter;stroke-opacity:1"
       d="m 21.84903,12.070078 c 0,0 0.91009,6.473067 10.703235,6.98128 9.793143,0.508213 9.891671,0.319891 9.891671,0.319891 0,0 3.307596,0.473696 1.099359,2.190977 -2.208239,1.717281 -17.924844,-1.964108 -19.51237,-2.91407 -1.587527,-0.949963 -4.163761,-3.885464 -2.181895,-6.578078 z"
       id="path1802" />
    <path
       style="fill:#9a9b9b;fill-opacity:0.729412;stroke:none;stroke-width:0.264583px;stroke-linecap:butt;stroke-linejoin:miter;stroke-opacity:1"
       d="m 40.947923,6.9779927 c 0,0 -11.568898,1.448771 -14.376083,3.7456793 -2.807184,2.296908 -2.895922,2.583927 -2.308169,2.83408 0.587751,0.250153 1.319273,0.581943 1.319273,0.581943 0,0 -0.900879,-0.64618 1.062281,-1.694069 1.963158,-1.04789 2.084594,-1.026209 4.775301,-1.714295 2.690707,-0.688085 5.024752,-1.528952 7.769754,-1.528952 2.745002,0 4.727962,-0.3570788 7.259313,-0.3570788 2.53135,0 8.25052,0.5469162 5.540068,1.3648488 -2.710453,0.817932 -7.848288,0.305033 -6.447653,2.049018 1.400633,1.743985 2.491267,0.909066 3.981559,0.876514 1.490292,-0.03255 5.178428,-0.547434 5.609249,0.539475 0.430818,1.08691 0.857067,1.756178 -0.686486,2.168781 -1.543555,0.412604 -3.714353,0.837772 -6.625889,0.661824 -2.911538,-0.175948 -4.256042,-0.853282 -6.919063,-0.588433 -2.663024,0.264848 -3.422481,-0.04514 -4.732888,0.55213 -1.310405,0.597273 -2.382473,0.570262 -2.682206,1.210409 -0.299733,0.640147 -1.661379,0.212587 2.757641,0.08393 4.419024,-0.128659 4.859359,0.0033 8.650767,0.0033 3.791408,0 7.317891,0.413986 9.643959,-0.05053 2.326069,-0.464513 8.424657,-1.429273 8.555517,-2.441726 0.13086,-1.012454 2.204903,-2.303221 -0.819256,-2.641372 -3.024161,-0.338151 -6.618211,-1.676242 -4.280694,-2.077544 2.337515,-0.401301 2.895931,-0.446276 3.707035,-0.192433 0.811104,0.253843 4.750446,1.027038 5.346407,1.75914 0.595958,0.732102 1.333796,1.089368 0.332036,1.827141 -1.001763,0.737774 -0.523214,1.058798 1.136758,-0.03594 1.65997,-1.094741 5.027748,-2.713184 1.74475,-3.554579 C 66.978206,9.5178599 67.708946,9.1289748 63.219586,8.5197942 58.730228,7.9106132 43.24243,6.542888 40.947923,6.9779927 Z"
       id="path2469" />
    <path
       style="fill:#ffffff;fill-opacity:1;stroke:none;stroke-width:0.264583px;stroke-linecap:butt;stroke-linejoin:miter;stroke-opacity:1"
       d="m 74.169307,18.716484 1.504951,-1.575494 c 0,0 2.347808,-1.979082 4.302896,-0.612696 1.955101,1.366385 1.739991,1.717775 2.223848,3.257539 0.483857,1.539764 0.492847,3.777984 -0.225457,4.577196 -0.718307,0.799213 -0.822047,1.615026 -2.103878,2.213746 -1.281844,0.598717 -1.743671,1.012272 -2.814265,1.274289 -1.070604,0.262019 -3.870859,0.608062 -3.870859,0.608062 0,0 0.899994,-2.004536 1.030874,-3.35191 0.13087,-1.347375 0.431657,-2.362273 0.387667,-3.170007 -0.044,-0.807734 -0.435777,-3.220725 -0.435777,-3.220725 z"
       id="path2822" />
    <path
       style="fill:#2d2f2f;fill-opacity:0.509804;stroke:none;stroke-width:0.264583px;stroke-linecap:butt;stroke-linejoin:miter;stroke-opacity:1"
       d="m 43.634675,38.553108 0.645541,0.0909 c 0,0 -0.458701,1.081617 -0.04399,1.496341 0.414716,0.414721 0.884193,0.586197 1.496243,0.586197 0.61205,0 1.53062,-0.245554 1.993969,-0.580768 0.463349,-0.335217 1.289521,-1.019884 1.289521,-1.019884 0,0 -0.390774,1.161515 -1.372011,1.476401 -0.981239,0.314886 -1.514308,0.518859 -1.898837,0.455147 -0.384533,-0.06371 -1.05735,-0.09131 -1.457738,-0.278506 -0.400389,-0.187192 -0.643901,-1.34535 -0.643901,-1.34535 z"
       id="path3660" />
    <path
       style="fill:#000000;fill-opacity:0.509804;stroke:none;stroke-width:0.264583px;stroke-linecap:butt;stroke-linejoin:miter;stroke-opacity:1"
       d="m 43.113226,37.158785 c 0,0 0.246912,-0.582109 0.75905,-0.256026 0.512135,0.326083 1.03987,0.570857 1.425397,0.506375 0.385527,-0.06448 0.668227,0.216244 0.02053,0.469427 -0.647695,0.253185 -1.184685,-0.04409 -1.55675,-0.110956 -0.372062,-0.06686 -0.648227,-0.60882 -0.648227,-0.60882 z"
       id="path3801" />
    <path
       style="fill:#000000;fill-opacity:0.509804"
       d="m 42.855971,33.689674 c 0,0 0.355759,-0.472892 0.435751,0.148675 0.07999,0.621567 0.293288,1.007142 0.229232,1.234152 -0.06405,0.227012 -0.330967,0.31632 -0.392263,0.198935 -0.0613,-0.117383 -0.43483,-0.277416 -0.195734,0.04382 0.239096,0.321233 0.663345,0.900221 0.751319,0.446754 0.08797,-0.453466 0.4113,-0.442793 0.309375,-1.016592 -0.101926,-0.573797 1.3e-5,-0.888011 1.3e-5,-0.888011 0,0 0.975413,-0.245642 1.634059,-0.289629 0.658645,-0.04399 1.506783,-0.289367 2.374027,-0.32707 0.86724,-0.0377 1.210611,-0.363677 1.515872,-0.275124 0.30526,0.08855 0.628176,-0.09143 1.010528,0.21594 0.382352,0.307366 0.573728,0.454758 0.573728,0.454758 l 0.156588,-0.315685 -0.828569,-0.70824 -3.188221,0.169376 -3.828188,0.480946 -0.467519,-0.18897 z"
       id="path3943" />
    <path
       style="fill:#212121;fill-opacity:0.509804;stroke:none;stroke-width:0.264583px;stroke-linecap:butt;stroke-linejoin:miter;stroke-opacity:1"
       d="m 46.055718,29.798834 c 0,0 0.174829,-0.383249 1.203259,-0.383249 1.028427,0 0.847029,-0.0021 1.944124,-0.269968 1.097095,-0.267917 1.062384,-0.429681 1.985042,-0.384043 0.92266,0.04564 1.000159,0.160854 1.48649,-0.170997 0.486333,-0.331851 0.460697,-0.49824 0.85131,-0.34666 0.390615,0.151577 0.649549,0.315865 0.849566,0.519684 0.200015,0.203819 0.392346,0.404672 0.01968,0.667777 -0.372663,0.263104 -1.142984,0.329086 -1.318932,0.351078 -0.175948,0.02199 -0.260551,0.175157 -0.520022,0.302667 -0.259472,0.127511 -0.239557,0.151829 -1.078434,0.237948 -0.838878,0.08612 -0.955413,-0.08972 -1.547323,0.172837 -0.591913,0.262559 -0.885034,0.262546 -1.180383,0.388617 -0.295352,0.126074 -0.383935,0.0525 -0.646674,0.192053 -0.262742,0.139549 -0.573164,0.236908 -0.737346,0.116919 -0.164182,-0.119988 -0.08911,-0.339923 -0.384117,-0.273941 -0.295005,0.06598 -0.531241,-0.05117 -0.531241,-0.05117 z"
       id="path4092" />
    <path
       style="fill:#373739;fill-opacity:0.509804;stroke:none;stroke-width:0.264583px;stroke-linecap:butt;stroke-linejoin:miter;stroke-opacity:1"
       d="m 45.179672,29.393386 0.597998,-0.216265 c 0,0 0.222356,-0.377963 0.382474,-0.399957 0.160118,-0.02199 1.138967,-0.06688 1.138967,-0.06688 l 0.503304,-0.185406 0.429263,-0.219935 0.854178,0.182671 0.482388,-0.397156 0.761032,-0.175948 0.06357,-0.232478 -0.885997,-0.235286 c 0,0 -0.458343,-0.06337 -0.819541,0.130376 -0.361199,0.193741 -0.795835,0.251883 -0.903227,0.379619 -0.107389,0.127732 -0.830511,0.285652 -0.830511,0.285652 l -1.112597,0.170955 c 0,0 -0.502735,0.09204 -0.568309,0.200917 -0.06557,0.108878 -0.196043,0.361084 -0.196043,0.361084 l -0.326126,0.234543 -0.453149,0.448477 z"
       id="path4236" />
    <path
       style="fill:#3b3b3b;fill-opacity:0.509804;stroke:none;stroke-width:0.264583px;stroke-linecap:butt;stroke-linejoin:miter;stroke-opacity:1"
       d="m 50.248687,31.354872 1.969584,-0.04155 0.50232,-0.412983 0.588722,0.08937 h 0.333835 l 0.176456,-0.103333 0.409612,-0.197112 c 0,0 0.271611,-0.02199 0.375391,-0.02199 0.103777,0 0.3644,0 0.3644,0 l 0.396518,0.257569 c 0,0 -0.839748,0.18514 -0.951394,0.18514 -0.111649,0 -2.20434,0.123291 -2.20434,0.123291 l -0.343648,0.380351 c 0,0 -0.14854,0.101465 -0.29464,0.121494 -0.146101,0.02003 -0.715354,0.117938 -0.715354,0.117938 l -0.841166,0.07715 -0.519142,-0.06684 -0.828402,0.09892 c 0,0 0.04573,-0.05143 -0.235869,0.07971 -0.281596,0.131146 -0.62957,0.06516 -0.62957,0.06516 l -0.520465,0.08585 0.07346,-0.406442 0.951844,-0.158623 0.670111,-0.03291 h 0.885253 z"
       id="path4381" />
    <path
       style="fill:#6e6e72;fill-opacity:0.509804;stroke:none;stroke-width:0.225301px;stroke-linecap:butt;stroke-linejoin:miter;stroke-opacity:1"
       d="m 3.5859299,66.980072 c 0,0 -0.9380817,0.941059 0.2140627,1.332227 1.1521424,0.391168 94.9371864,0 94.9371864,0 0,0 2.150251,-0.558779 0.587857,-1.038365 C 97.762645,66.794345 3.5859299,66.980072 3.5859299,66.980072 Z"
       id="path4527" />
    <path
       style="fill:#6c6e70;fill-opacity:0.509804;stroke:none;stroke-width:0.224185px;stroke-linecap:butt;stroke-linejoin:miter;stroke-opacity:1"
       d="m 4.5600323,88.685018 c 0,0 -1.8192961,0.51472 -0.257556,1.079156 1.5617391,0.564435 94.2391027,0 94.2391027,0 0,0 1.918621,-0.536866 0.38734,-0.848688 C 97.397635,88.603664 4.5600323,88.685018 4.5600323,88.685018 Z"
       id="path4674" />
    <g
       aria-label="COFFEE COMPANY"
       id="text8377"
       style="font-size:10.5833px;stroke-width:0.264583"
       transform="translate(-25.929177)">
      <path
         d="m 34.934901,75.181272 v 1.100704 q -0.527098,-0.490924 -1.126543,-0.733803 -0.594277,-0.242878 -1.266068,-0.242878 -1.322913,0 -2.02571,0.811317 -0.702797,0.80615 -0.702797,2.335767 0,1.52445 0.702797,2.335768 0.702797,0.806149 2.02571,0.806149 0.671791,0 1.266068,-0.242878 0.599445,-0.242878 1.126543,-0.733803 v 1.090369 q -0.547769,0.372069 -1.162716,0.558104 -0.60978,0.186035 -1.291907,0.186035 -1.751825,0 -2.759513,-1.069699 -1.007687,-1.074867 -1.007687,-2.930045 0,-1.860345 1.007687,-2.930044 1.007688,-1.074866 2.759513,-1.074866 0.692462,0 1.302242,0.186034 0.614948,0.180867 1.152381,0.547769 z"
         id="path88929" />
      <path
         d="m 39.678782,75.294959 q -1.136878,0 -1.808669,0.847491 -0.666624,0.847491 -0.666624,2.309929 0,1.457271 0.666624,2.304762 0.671791,0.847491 1.808669,0.847491 1.136878,0 1.798334,-0.847491 0.666624,-0.847491 0.666624,-2.304762 0,-1.462438 -0.666624,-2.309929 -0.661456,-0.847491 -1.798334,-0.847491 z m 0,-0.84749 q 1.622635,0 2.594149,1.090369 0.971514,1.085202 0.971514,2.914541 0,1.824173 -0.971514,2.914542 -0.971514,1.085202 -2.594149,1.085202 -1.627802,0 -2.604484,-1.085202 -0.971514,-1.085202 -0.971514,-2.914542 0,-1.829339 0.971514,-2.914541 0.976682,-1.090369 2.604484,-1.090369 z"
         id="path88931" />
      <path
         d="m 44.877415,74.586995 h 4.433824 v 0.878496 h -3.389963 v 2.273756 h 3.059235 v 0.878496 h -3.059235 v 3.684518 h -1.043861 z"
         id="path88933" />
      <path
         d="m 50.964879,74.586995 h 4.433823 v 0.878496 h -3.389963 v 2.273756 h 3.059235 v 0.878496 h -3.059235 v 3.684518 h -1.04386 z"
         id="path88935" />
      <path
         d="m 57.052344,74.586995 h 4.87824 v 0.878496 h -3.83438 v 2.284091 h 3.674183 v 0.878497 h -3.674183 v 2.795686 h 3.927397 v 0.878496 h -4.971257 z"
         id="path88937" />
      <path
         d="m 63.739251,74.586995 h 4.878239 v 0.878496 h -3.834379 v 2.284091 h 3.674183 v 0.878497 h -3.674183 v 2.795686 h 3.927397 v 0.878496 h -4.971257 z"
         id="path88939" />
      <path
         d="m 79.567694,75.181272 v 1.100704 q -0.527098,-0.490924 -1.126542,-0.733803 -0.594277,-0.242878 -1.266069,-0.242878 -1.322912,0 -2.02571,0.811317 -0.702797,0.80615 -0.702797,2.335767 0,1.52445 0.702797,2.335768 0.702798,0.806149 2.02571,0.806149 0.671792,0 1.266069,-0.242878 0.599444,-0.242878 1.126542,-0.733803 v 1.090369 q -0.547768,0.372069 -1.162716,0.558104 -0.60978,0.186035 -1.291906,0.186035 -1.751826,0 -2.759513,-1.069699 -1.007687,-1.074867 -1.007687,-2.930045 0,-1.860345 1.007687,-2.930044 1.007687,-1.074866 2.759513,-1.074866 0.692462,0 1.302241,0.186034 0.614948,0.180867 1.152381,0.547769 z"
         id="path88941" />
      <path
         d="m 84.311575,75.294959 q -1.136878,0 -1.808669,0.847491 -0.666624,0.847491 -0.666624,2.309929 0,1.457271 0.666624,2.304762 0.671791,0.847491 1.808669,0.847491 1.136878,0 1.798334,-0.847491 0.666624,-0.847491 0.666624,-2.304762 0,-1.462438 -0.666624,-2.309929 -0.661456,-0.847491 -1.798334,-0.847491 z m 0,-0.84749 q 1.622635,0 2.594149,1.090369 0.971513,1.085202 0.971513,2.914541 0,1.824173 -0.971513,2.914542 -0.971514,1.085202 -2.594149,1.085202 -1.627802,0 -2.604484,-1.085202 -0.971514,-1.085202 -0.971514,-2.914542 0,-1.829339 0.971514,-2.914541 0.976682,-1.090369 2.604484,-1.090369 z"
         id="path88943" />
      <path
         d="m 89.510209,74.586995 h 1.555455 l 1.968866,5.250308 1.979201,-5.250308 h 1.555456 v 7.715266 h -1.018023 v -6.774758 l -1.989536,5.291649 H 92.5126 l -1.989537,-5.291649 v 6.774758 h -1.012854 z"
         id="path88945" />
      <path
         d="m 99.685264,75.444821 v 2.899038 h 1.312576 q 0.72864,0 1.12654,-0.377237 0.39791,-0.377236 0.39791,-1.074866 0,-0.692462 -0.39791,-1.069699 -0.3979,-0.377236 -1.12654,-0.377236 z m -1.04386,-0.857826 h 2.356436 q 1.29708,0 1.95853,0.589109 0.66663,0.583942 0.66663,1.715652 0,1.142046 -0.66663,1.725987 -0.66145,0.583942 -1.95853,0.583942 h -1.312576 v 3.100576 h -1.04386 z"
         id="path88947" />
      <path
         d="m 106.92511,75.615352 -1.41593,3.839547 h 2.83703 z M 106.336,74.586995 h 1.18339 l 2.94038,7.715266 h -1.0852 l -0.7028,-1.979201 h -3.47781 l -0.7028,1.979201 h -1.1007 z"
         id="path88949" />
      <path
         d="m 111.58631,74.586995 h 1.4056 l 3.42097,6.454365 v -6.454365 h 1.01285 v 7.715266 h -1.40559 l -3.42097,-6.454365 v 6.454365 h -1.01286 z"
         id="path88951" />
      <path
         d="m 118.44375,74.586995 h 1.12137 l 2.1394,3.172922 2.1239,-3.172922 h 1.12137 l -2.72851,4.041084 v 3.674182 h -1.04902 v -3.674182 z"
         id="path88953" />
    </g>
    <path
       style="fill:#ababab;fill-opacity:0.584314;stroke:none;stroke-width:0.264583px;stroke-linecap:butt;stroke-linejoin:miter;stroke-opacity:1"
       d="m 40.45297,45.175721 c 0,0 -13.722221,-9.494223 -7.124557,-21.060695 -8.892332,-3.557283 -8.94791,-3.61286 -8.94791,-3.61286 0,0 4.474295,22.936338 16.072467,24.673555 z"
       id="path1672" />
    <path
       style="fill:#ababab;fill-opacity:0.584314;stroke:none;stroke-width:0.264583px;stroke-linecap:butt;stroke-linejoin:miter;stroke-opacity:1"
       d="m 61.80043,41.102622 c 0,0 9.207066,-11.458657 7.042517,-21.293323 -3.780051,1.224778 -3.780051,1.224778 -3.780051,1.224778 0,0 1.918224,13.495869 -3.262466,20.068545 z"
       id="path1543" />
    <path
       style="fill:#828383;fill-opacity:0.83137256;stroke:none;stroke-width:0.264583px;stroke-linecap:butt;stroke-linejoin:miter;stroke-opacity:1"
       d="m 31.856062,42.104086 2.556835,2.52829 c 0,0 -5.343599,0.106132 -4.028866,2.032196 1.314736,1.926066 3.844536,1.320194 4.509932,1.745707 0.665393,0.425511 3.245305,1.564942 0.551368,2.313739 -2.693938,0.748795 -7.253865,5.29e-4 -8.585566,-1.63943 -1.331701,-1.639911 -0.666287,-4.98103 1.832216,-5.670788 2.498503,-0.689761 3.164081,-1.309714 3.164081,-1.309714 z"
       id="path1933" />
    <path
       style="fill:#828383;fill-opacity:0.831373;stroke:none;stroke-width:0.264583px;stroke-linecap:butt;stroke-linejoin:miter;stroke-opacity:1"
       d="m 66.292494,41.566387 -2.472021,3.077302 c 0,0 -0.417121,0.04851 1.319268,0.356847 1.736389,0.308334 1.601976,0.662326 2.441316,0.724146 0.83934,0.06182 3.678656,-0.515313 3.049619,-1.440561 -0.629036,-0.925246 -1.336034,-1.594181 -1.876197,-1.770547 -0.540163,-0.176369 -2.461985,-0.947187 -2.461985,-0.947187 z"
       id="path2198" />
    <path
       style="fill:#828383;fill-opacity:0.831373;stroke:none;stroke-width:0.264583px;stroke-linecap:butt;stroke-linejoin:miter;stroke-opacity:1"
       d="m 70.543763,36.510069 -3.622617,5.030706 c 0,0 0.134832,-0.538702 2.424293,-0.05886 2.289458,0.479835 1.965597,0.42619 3.650713,0.60657 1.685112,0.180377 2.733796,-0.341228 3.495433,-0.759886 0.761624,-0.418661 2.533765,-2.204839 0.888614,-3.287773 -1.645151,-1.082937 -6.836436,-1.530753 -6.836436,-1.530753 z"
       id="path2065" />
    <path
       style="fill:#828383;fill-opacity:0.831373;stroke:none;stroke-width:0.264583px;stroke-linecap:butt;stroke-linejoin:miter;stroke-opacity:1"
       d="m 82.430202,40.820883 c 0,0 -6.020127,-0.330647 -3.038275,3.137012 2.981855,3.467658 5.60435,0.722661 5.222093,-0.128524 -0.38226,-0.851184 1.434391,-1.465321 -2.183818,-3.008488 z"
       id="path2334" />
  </g>
</svg>
