<svg xmlns="http://www.w3.org/2000/svg" aria-hidden="true" data-name="Layer 1" viewBox="0 0 24 24"
  role="img">
  <line x1="14.74" x2="18.45" y1="5.55" y2="9.26" fill="none" vector-effect="non-scaling-stroke"
    stroke="var(--icon-color, #001e00)" stroke-linecap="round" stroke-linejoin="round"
    stroke-width="1.5"></line>
  <path fill="none" vector-effect="non-scaling-stroke" stroke="var(--icon-color, #001e00)"
    stroke-linecap="round" stroke-linejoin="round" stroke-width="1.5"
    d="M6.49 20.59L4.57 21A1.3 1.3 0 013 19.43l.38-1.92a2.56 2.56 0 01.72-1.34l12.4-12.4a2.6 2.6 0 013.7 0h0a2.6 2.6 0 010 3.7L7.83 19.87a2.56 2.56 0 01-1.34.72z"></path>
  <path fill="none" vector-effect="non-scaling-stroke" stroke="var(--icon-color, #001e00)"
    stroke-linecap="round" stroke-linejoin="round" stroke-width="1.34"
    d="M16.06 11.64l4.42 4.41a1.8 1.8 0 010 2.53l-1.9 1.9a1.8 1.8 0 01-2.53 0l-4.41-4.42m-3.7-3.7L3.52 8a1.8 1.8 0 010-2.53l1.9-1.9A1.8 1.8 0 018 3.52L12.42 8"></path>
  <line x1="4.27" x2="6.17" y1="8.69" y2="6.8" fill="none" vector-effect="non-scaling-stroke"
    stroke="var(--icon-color, #001e00)" stroke-linecap="round" stroke-linejoin="round"
    stroke-width="1.37"></line>
  <line x1="6.09" x2="7.98" y1="10.51" y2="8.62" fill="none" vector-effect="non-scaling-stroke"
    stroke="var(--icon-color, #001e00)" stroke-linecap="round" stroke-linejoin="round"
    stroke-width="1.37"></line>
  <line x1="13.49" x2="15.38" y1="17.91" y2="16.02" fill="none" vector-effect="non-scaling-stroke"
    stroke="var(--icon-color, #001e00)" stroke-linecap="round" stroke-linejoin="round"
    stroke-width="1.37"></line>
  <line x1="15.31" x2="17.2" y1="19.73" y2="17.83" fill="none" vector-effect="non-scaling-stroke"
    stroke="var(--icon-color, #001e00)" stroke-linecap="round" stroke-linejoin="round"
    stroke-width="1.37"></line>
</svg>