<?xml version="1.0" encoding="UTF-8" standalone="no"?>
<!-- Created with Inkscape (http://www.inkscape.org/) -->

<svg
   width="237mm"
   height="297mm"
   viewBox="0 0 237 297"
   version="1.1"
   id="svg5"
   inkscape:version="1.1.1 (3bf5ae0, 2021-09-20)"
   sodipodi:docname="teamwork.svg"
   xmlns:inkscape="http://www.inkscape.org/namespaces/inkscape"
   xmlns:sodipodi="http://sodipodi.sourceforge.net/DTD/sodipodi-0.dtd"
   xmlns="http://www.w3.org/2000/svg"
   xmlns:svg="http://www.w3.org/2000/svg">
  <sodipodi:namedview
     id="namedview7"
     pagecolor="#ffffff"
     bordercolor="#999999"
     borderopacity="1"
     inkscape:pageshadow="0"
     inkscape:pageopacity="0"
     inkscape:pagecheckerboard="0"
     inkscape:document-units="px"
     showgrid="false"
     inkscape:zoom="0.53165939"
     inkscape:cx="787.15811"
     inkscape:cy="474.92813"
     inkscape:window-width="1846"
     inkscape:window-height="1016"
     inkscape:window-x="74"
     inkscape:window-y="27"
     inkscape:window-maximized="1"
     inkscape:current-layer="layer2" />
  <defs
     id="defs2" />
  <g
     inkscape:groupmode="layer"
     id="layer2"
     inkscape:label="Drawing"
     style="display:inline">
    <path
       style="fill:#d4faef;fill-opacity:1;stroke:none;stroke-width:0.264583px;stroke-linecap:butt;stroke-linejoin:miter;stroke-opacity:1"
       d="M 2.5470108,4.0670003 H 235.38033 V 236.90033 H 2.5470108 Z"
       id="path103594" />
    <path
       style="fill:#c0f2e6;fill-opacity:1;stroke:none;stroke-width:0.264583px;stroke-linecap:butt;stroke-linejoin:miter;stroke-opacity:1"
       d="m 203.08879,154.12309 c 0,0 8.29876,-27.15827 1.01857,-35.24162 -7.28019,-8.08336 -46.01862,-20.218029 -46.01862,-20.218029 0,0 -26.81065,-9.841423 -31.03013,-13.432446 -4.21949,-3.59102 -18.49704,-4.701862 -21.38308,-4.701862 -2.88604,0 -39.944958,8.959947 -39.944958,8.959947 l -13.06313,13.79125 c 0,0 -18.965926,17.18811 -15.24554,24.36693 3.720385,7.17882 -11.045106,18.02297 -10.520511,24.89767 0.524595,6.8747 16.069347,28.20244 16.069347,28.20244 l 85.376592,3.79309 75.17259,-3.47996 z"
       id="path54667" />
    <path
       style="fill:#3e8e7b;fill-opacity:1;stroke:none;stroke-width:0.264583px;stroke-linecap:butt;stroke-linejoin:miter;stroke-opacity:1"
       d="m 176.34821,148.75126 c 0,0 2.74435,-7.36992 6.31364,-8.53967 3.56929,-1.16976 2.88354,-2.58552 5.19216,-4.08988 2.30863,-1.50436 4.50969,-6.4086 6.3055,-9.79333 1.7958,-3.38473 4.1659,-4.94432 4.61128,-11.14315 0.44538,-6.19883 1.16535,-11.14541 0.90143,-15.427208 -0.26392,-4.281794 -2.72152,-2.50708 -1.3034,-6.250344 1.41813,-3.743264 3.68698,-5.922735 0.42747,-3.895535 -3.25951,2.027201 -6.02375,4.420735 -6.37751,7.399393 -0.35376,2.978656 -2.45686,6.716414 -4.21634,9.968214 -1.75948,3.25179 -3.98404,3.20284 -2.91944,7.78047 1.0646,4.57764 1.55852,8.3118 0.78724,9.97589 -0.77128,1.66409 0.0897,6.34536 -2.67992,8.1143 -2.76961,1.76894 -1.86319,4.54727 -2.8019,6.16929 -0.93872,1.62202 -3.68034,4.86047 -3.94582,6.1885 -0.26547,1.32803 -3.05616,2.92736 -3.05616,2.92736 z"
       id="path9971" />
    <path
       style="fill:#bff3e6;fill-opacity:1;stroke:none;stroke-width:0.264583px;stroke-linecap:butt;stroke-linejoin:miter;stroke-opacity:1"
       d="m 31.026081,176.52841 c 0,0 -23.1070096,1.19616 -5.827649,6.0067 17.279361,4.81053 65.7051,6.74811 76.747718,6.74811 11.04262,0 94.61746,-3.80688 96.54141,-4.52397 1.92395,-0.71709 25.48508,-4.53921 16.44797,-7.23697 -9.0371,-2.69776 -70.46544,-3.64504 -70.46544,-3.64504 L 42.098261,166.6118 Z"
       id="path42794" />
    <path
       style="fill:#3e8e7b;fill-opacity:1;stroke:none;stroke-width:0.264583px;stroke-linecap:butt;stroke-linejoin:miter;stroke-opacity:1"
       d="m 172.95945,100.79551 c 0,0 4.06462,-4.269391 6.10407,-5.31906 2.03945,-1.049668 2.80663,-1.234667 4.18243,-3.104726 1.37581,-1.870059 2.16342,-1.796616 3.83048,-4.650603 1.66706,-2.853983 3.47592,-6.062575 3.47592,-6.062575 0,0 -1.59297,5.173705 -2.0758,6.40701 -0.48284,1.233305 1.44967,1.501764 -1.57277,4.243649 -3.02244,2.741888 -3.75296,4.410192 -5.47146,5.779881 -1.71851,1.36969 -7.07838,7.395464 -7.07838,7.395464 z"
       id="path39148" />
    <path
       style="fill:#fcaa82;fill-opacity:1;stroke:none;stroke-width:0.264583px;stroke-linecap:butt;stroke-linejoin:miter;stroke-opacity:1"
       d="m 125.93261,63.097026 1.06871,15.654604 c 0,0 1.41562,4.074253 4.4226,2.948451 3.00697,-1.125802 3.09224,-1.621293 5.66587,-1.299388 2.57362,0.321906 7.01488,2.211147 7.17916,6.26531 0.16428,4.054163 -0.83042,5.661932 -2.0213,6.09913 -1.19087,0.4372 -6.33172,3.654216 -9.49653,1.66243 -3.16482,-1.991784 -4.69859,-4.054269 -5.3021,-1.746528 -0.60352,2.307738 -0.85691,17.401175 -0.85691,17.401175 0,0 13.21155,-0.85396 15.89464,0.44758 2.6831,1.30154 3.72466,1.19724 2.75652,3.31171 -0.96813,2.11448 -4.49213,10.9534 0.97674,13.03219 5.46886,2.07878 8.33329,0.6037 9.48467,-2.99846 1.15137,-3.60216 3.83347,-3.72466 0.77813,-7.84626 -3.05534,-4.12161 -2.40834,-6.07698 1.37704,-5.82153 3.78537,0.25545 14.63259,0.56279 14.63259,0.56279 0,0 6.36832,-20.123095 0.90268,-31.513188 -5.46564,-11.390095 -6.11655,-14.086551 -14.02471,-15.078815 -7.90817,-0.992262 -17.40214,-0.983351 -23.21763,-1.365504 -5.81548,-0.382154 -10.22017,0.284303 -10.22017,0.284303 z"
       id="path6184" />
    <path
       style="fill:#f5c6c2;fill-opacity:1;stroke:none;stroke-width:0.264583px;stroke-linecap:butt;stroke-linejoin:miter;stroke-opacity:1"
       d="m 133.03343,122.91789 -0.0677,1.94715 1.3414,0.5173 1.10808,-0.55245 c 0,0 -0.19403,-1.56501 -0.44337,-2.09218 -0.24934,-0.52716 -1.93845,0.18018 -1.93845,0.18018 z"
       id="path6768" />
    <path
       style="fill:#f5c6c2;fill-opacity:1;stroke:none;stroke-width:0.264583px;stroke-linecap:butt;stroke-linejoin:miter;stroke-opacity:1"
       d="m 127.14449,122.89551 -0.44314,2.15456 1.7221,0.87337 c 0,0 1.44223,-0.35585 0.87445,-1.51459 -0.56777,-1.15874 -0.58761,-2.17757 -0.58761,-2.17757 z"
       id="path6604" />
    <path
       style="fill:#041364;fill-opacity:1;stroke:#000000;stroke-width:0.264583px;stroke-linecap:butt;stroke-linejoin:miter;stroke-opacity:1"
       d="m 27.211176,134.58805 -0.23898,2.43456 30.836663,0.0563 -0.0122,-2.57795 z"
       id="path19629" />
    <path
       style="fill:none;fill-opacity:1;stroke:none;stroke-width:0.264583px;stroke-linecap:butt;stroke-linejoin:miter;stroke-opacity:1"
       d="m 31.026081,176.52841 c 0,0 -8.707015,-2.13554 -8.605379,1.77375 0.101637,3.90928 34.734724,8.14073 35.772126,8.14073 1.037405,0 37.767606,1.65903 47.087592,1.83814 9.31999,0.17912 85.00599,-3.00585 95.01377,-4.32002 10.00777,-1.31416 23.99777,-6.39584 13.4995,-7.34405 -10.49827,-0.94821 -13.08046,-19.79359 -13.08046,-19.79359 0,0 5.80425,-10.44297 5.66508,-18.16965 -0.13917,-7.72669 0.91246,-12.65989 -3.01183,-19.59692 -3.92429,-6.93703 -13.88448,-13.29377 -20.27133,-14.71903 -6.38685,-1.42526 -34.79288,-1.7034 -34.79288,-1.7034 0,0 -16.86568,-14.902512 -21.9519,-18.753856 -5.08621,-3.851346 -14.95319,-5.745707 -18.70918,-4.838313 -3.75599,0.907391 -70.316578,60.835619 -70.316578,60.835619 0,0 -0.79275,-3.10182 -5.003843,3.93099 -4.211095,7.03281 -5.090834,9.68327 -4.738938,13.35405 0.351895,3.67079 3.44425,19.36555 3.44425,19.36555 z"
       id="path11263" />
    <path
       style="fill:#9ad8cb;fill-opacity:1;stroke:none;stroke-width:0.264583px;stroke-linecap:butt;stroke-linejoin:miter;stroke-opacity:1"
       d="m 31.026081,172.21646 c 0,0 -4.571873,-4.05419 -6.077484,-8.16223 -1.505611,-4.10803 -7.371831,-12.1051 -3.188636,-12.45699 4.183194,-0.3519 7.110933,0.38768 9.185679,1.42155 2.074746,1.03388 5.538266,1.75669 5.538266,1.75669 0,0 -7.125393,-7.47852 -4.46351,-8.34022 2.661883,-0.86169 3.821147,-0.37084 7.290212,0.87903 3.469064,1.24988 7.966634,3.65514 10.484403,4.1661 2.517773,0.51097 5.15897,1.25241 5.668076,0.91926 0.509104,-0.33316 3.26394,-0.13542 4.303872,-1.57438 1.039931,-1.43896 0.46759,-6.91112 4.409725,-1.70614 3.942133,5.20498 5.360525,13.14986 8.081719,15.32434 2.721192,2.17449 4.680535,10.77985 4.680535,10.77985 0,0 -7.99157,-1.98792 -12.391006,-1.46841 -4.399439,0.5195 -13.063739,0.321 -13.063739,0.321 z"
       id="path11463" />
    <path
       style="fill:#3e8e7b;fill-opacity:1;stroke:none;stroke-width:0.264583px;stroke-linecap:butt;stroke-linejoin:miter;stroke-opacity:1"
       d="m 28.922151,130.64094 c 0,0 5.679263,2.06046 5.679263,2.06046 0,0 3.109489,1.09633 5.832076,4.08784 2.722583,2.99151 2.575856,4.67618 4.331985,5.73075 1.756127,1.05457 1.961267,1.41357 4.820846,1.31853 2.85958,-0.095 5.423961,0.96251 6.831544,3.44306 1.407581,2.48054 4.114957,2.03083 2.356046,5.70861 -1.75891,3.67778 -2.8907,5.28882 -2.627894,6.33344 0.262805,1.04462 0.306668,-1.0035 -3.831823,-4.34231 -4.138488,-3.33882 -4.024283,-5.05737 -8.08192,-6.89935 -4.057637,-1.84199 -6.099593,-2.10206 -7.594325,-2.94576 -1.494734,-0.84371 1.848059,1.52984 -1.318786,-5.12107 -3.166843,-6.65092 -6.397012,-9.3742 -6.397012,-9.3742 z"
       id="path11144" />
    <path
       style="fill:#3e8f7e;fill-opacity:1;stroke:none;stroke-width:0.264583px;stroke-linecap:butt;stroke-linejoin:miter;stroke-opacity:1"
       d="m 62.457276,148.40994 c 0,0 1.732219,-9.28796 2.079964,-11.57917 0.347744,-2.29122 -2.507353,-9.7765 -2.507353,-9.7765 0,0 1.45502,-2.21809 1.279075,-5.20022 -0.175948,-2.98214 -0.68336,-3.84302 -1.740665,-7.6356 -1.057304,-3.79258 0.06992,-4.28139 -1.321225,-6.4511 -1.391143,-2.16972 -2.829587,-1.0965 -3.867137,-3.29286 -1.037553,-2.19635 -3.712491,-1.19416 -3.712491,-1.19416 l -8.013419,11.56869 9.180351,12.26364 c 0,0 0.571193,-0.44664 1.089967,2.20359 0.518774,2.65023 0.490408,2.02111 1.114369,5.3825 0.623964,3.36141 -0.264522,3.25103 1.670905,5.88609 1.935427,2.63506 3.097273,8.80147 3.097273,8.80147 z"
       id="path10946" />
    <path
       style="fill:#3e8e7b;fill-opacity:1;stroke:none;stroke-width:0.264583px;stroke-linecap:butt;stroke-linejoin:miter;stroke-opacity:1"
       d="m 35.622777,88.352568 c 0.49122,0.08797 1.239978,2.249702 1.239978,4.020648 0,1.770949 -0.96552,0.544153 -0.701598,5.20632 0.263922,4.662164 0.0029,1.317366 0.705617,8.755884 0.702688,7.43851 0.352272,8.57918 1.519161,11.69525 1.166892,3.11607 3.088626,7.65764 4.641686,10.88538 1.553059,3.22774 3.829902,5.73071 6.120587,8.12485 2.290683,2.39414 4.522248,3.25555 6.092725,5.59658 1.570479,2.34104 2.516251,2.1766 3.04175,4.22483 0.525497,2.04824 2.524207,2.524 2.524207,2.524 0,0 -0.109178,-2.71944 -2.624407,-6.96363 -2.515233,-4.24418 -4.746286,-3.55329 -4.978305,-7.80467 -0.232021,-4.25139 -3.695613,-10.27582 -3.695613,-11.9368 0,-1.66099 0.549799,-5.29885 0.703297,-5.96437 0.153498,-0.66551 -2.167088,-4.82565 -2.334363,-5.57313 -0.167277,-0.74747 -0.856742,-6.43227 -0.856742,-6.43227 0,0 -1.543719,-0.73459 -2.528906,-4.1176 -0.985189,-3.383014 1.752719,-1.457652 -1.245102,-4.979248 -2.997825,-3.521596 -7.623972,-7.262024 -7.623972,-7.262024 z"
       id="path10553" />
    <path
       style="fill:#439684;fill-opacity:1;stroke:none;stroke-width:0.264583px;stroke-linecap:butt;stroke-linejoin:miter;stroke-opacity:1"
       d="m 45.378375,80.572501 c 0,0 1.26882,5.508847 2.220343,7.952628 0.951527,2.443782 3.167708,4.514998 4.842928,5.849758 1.67522,1.334759 0.570736,0.410874 2.378464,3.149708 1.807729,2.738835 2.700348,2.148859 4.270206,4.841095 1.569857,2.69223 2.935978,4.17957 4.072744,7.76232 1.136767,3.58275 0.146418,8.20728 1.598364,9.50287 1.451943,1.29558 2.787565,8.54811 2.787565,8.54811 l 5.019186,-0.0281 c 0,0 -0.637667,-7.42517 -2.401398,-11.06607 -1.763731,-3.64089 -3.627745,-8.17354 -3.715719,-10.43044 C 66.363085,104.39744 60.214377,95.434943 55.489461,93.204209 50.764545,90.973478 52.729677,91.750858 51.314582,89.797862 49.899487,87.844867 47.105236,86.042226 46.929288,84.104265 46.75334,82.1663 45.378375,80.572501 45.378375,80.572501 Z"
       id="path10749" />
    <path
       style="fill:#f6ad80;fill-opacity:1;stroke:none;stroke-width:0.264583px;stroke-linecap:butt;stroke-linejoin:miter;stroke-opacity:1"
       d="m 58.88637,97.564235 c 0,0 1.585978,0.19594 2.252265,0.0122 0.66629,-0.183755 1.013005,-0.556569 1.429131,-1.251159 0.416124,-0.694592 0.731891,-0.827447 0.574726,-1.864606 -0.157166,-1.037158 0.331919,-1.376381 -0.327203,-1.951548 -0.659122,-0.57517 -2.114804,-0.619543 -3.007828,-0.598966 -0.893024,0.02058 -1.058156,1.096653 -1.400294,1.603764 -0.342138,0.507111 -1.105519,2.664285 -1.045803,3.128854 0.05971,0.464566 1.525006,0.921477 1.525006,0.921477 z"
       id="path4695" />
    <path
       style="fill:#fe7483;fill-opacity:1;stroke:none;stroke-width:0.264583px;stroke-linecap:butt;stroke-linejoin:miter;stroke-opacity:1"
       d="m 130.94807,101.27088 c 0,0 -0.53372,1.10106 0.41071,1.23302 0.94443,0.13196 1.51672,-1.03844 2.24582,-1.38508 0.7291,-0.34664 1.32847,-0.71089 0.62024,0.8516 -0.70824,1.56247 -2.11677,2.05937 -1.47461,3.69212 0.64216,1.63275 0.28225,1.40442 2.75072,2.13625 2.46847,0.73182 4.94202,-0.30245 5.02813,-1.4531 0.0861,-1.15065 -0.25576,-1.72879 -0.66597,-4.63468 -0.4102,-2.905879 -0.46015,-2.475074 -0.85604,-4.716756 -0.39588,-2.241682 -4.06074,-3.733898 -4.8005,-1.685004 -0.73976,2.048893 -0.79005,1.941726 -1.84667,2.998083 -1.05661,1.056354 -2.23026,1.730207 -2.34349,1.924497 -0.11323,0.19428 -0.50367,0.92526 -0.50367,0.92526 l 0.31572,0.66738 z"
       id="path2881" />
    <path
       style="fill:#fabeb8;fill-opacity:1;stroke:none;stroke-width:0.264583px;stroke-linecap:butt;stroke-linejoin:miter;stroke-opacity:1"
       d="m 134.92688,89.270802 c 0,0 0.31297,0.577469 -0.1529,0.825365 -0.46587,0.247896 -0.50391,0.350348 -0.20383,0.503896 0.30008,0.153551 0.56437,-0.715473 0.0336,0.452753 -0.5308,1.168228 -0.57978,1.308692 -0.0587,1.550622 0.52112,0.241927 0.12174,-0.461756 0.59924,0.27985 0.47749,0.741608 0.80227,1.428776 0.80227,1.428776 0,0 1.94418,0.100073 2.37522,-0.686176 0.43103,-0.786249 0.24215,-3.558381 0.24215,-3.558381 l -1.20773,-1.605005 z"
       id="path3148" />
    <path
       style="fill:#fd757f;fill-opacity:1;stroke:none;stroke-width:0.264583px;stroke-linecap:butt;stroke-linejoin:miter;stroke-opacity:1"
       d="m 62.029887,127.05427 13.376934,0.18519 6.221428,-4.06344 -9.097677,-13.09822 4.745829,-3.73995 5.389898,3.52777 c 0,0 7.378221,-1.97507 8.661114,1.38707 1.282891,3.36213 3.162938,3.9989 1.405398,6.97852 -1.757542,2.97962 -3.311609,4.65498 -1.94614,6.43518 1.36547,1.7802 0.395605,1.80991 4.751747,2.11422 4.356143,0.30431 13.055632,-0.28533 13.055632,-0.28533 l 0.23916,16.35598 c 0,0 -1.41808,2.62417 -3.45201,2.02891 -2.03392,-0.59526 -1.74533,-2.5139 -5.76487,-2.34174 -4.019544,0.17216 -8.521536,3.38593 -8.51231,7.08893 0.0092,3.703 0.751666,5.87718 4.4254,6.82484 3.673732,0.94766 5.76731,1.03935 7.32525,0.2572 1.55794,-0.78215 5.09105,-2.05078 5.74975,1.0013 0.6587,3.05209 0.0478,5.96782 -0.042,8.8246 -0.0898,2.85678 0.34156,7.9144 0.34156,7.9144 l -27.530357,-0.2925 c 0,0 -19.324836,-4.1172 -19.235761,-17.13113 0.08908,-13.01395 -0.107995,-29.9718 -0.107995,-29.9718 z"
       id="path9779" />
    <path
       style="fill:#189bd8;fill-opacity:1;stroke:none;stroke-width:0.264583px;stroke-linecap:butt;stroke-linejoin:miter;stroke-opacity:1"
       d="m 82.105129,132.11766 0.858832,0.10557 2.805057,2.69939 c 0,0 -0.200319,3.08597 -0.333653,3.66252 -0.133332,0.57655 -1.733288,1.11734 -2.528356,1.19376 -0.79507,0.0764 -1.796886,0.28968 -2.609606,0.33367 -0.812721,0.044 -2.214679,0.37741 -2.897384,0.0596 -0.682704,-0.31785 -1.675603,-0.6231 -0.885018,-2.64919 0.790583,-2.02609 1.43037,-3.00313 1.496349,-3.45808 0.06598,-0.45495 0.53146,-1.24811 0.53146,-1.24811 l 0.741754,-0.35172 1.170948,1.27567 1.008391,0.90469 0.432916,0.37109 z"
       id="path5738" />
    <path
       style="fill:#f2c4b5;fill-opacity:1;stroke:none;stroke-width:0.264583px;stroke-linecap:butt;stroke-linejoin:miter;stroke-opacity:1"
       d="m 78.475569,131.26975 c 0,0 1.696035,2.39295 2.436281,2.95614 0.740243,0.56319 0.984972,0.79059 0.984972,0.79059 l 0.179451,-3.7963 c 0,0 0.689721,0.19944 1.17361,-0.5705 0.483888,-0.76994 0.603337,-1.25832 0.603337,-1.75348 0,-0.49516 -0.07158,-1.6914 -0.469321,-2.93751 -0.397734,-1.24612 -0.965102,-1.50116 -2.665954,-1.26299 -1.700856,0.23817 -3.152482,1.36205 -3.506481,1.89172 -0.353999,0.52968 -0.977283,0.88948 -0.110797,1.93005 0.866487,1.04058 1.374902,2.75228 1.374902,2.75228 z"
       id="path5431" />
    <path
       style="fill:#fbc6bf;fill-opacity:1;stroke:none;stroke-width:0.264583px;stroke-linecap:butt;stroke-linejoin:miter;stroke-opacity:1"
       d="m 99.670861,58.347921 -0.214175,-3.504633 2.312394,-0.776769 1.36123,0.94316 0.46663,1.012722 -0.23499,1.19245 -0.61549,1.169906 c 0,0 -0.0198,-0.02656 -0.0638,0.31492 -0.044,0.341487 -1.6182,0.692341 -2.05079,0.603951 -0.43258,-0.08839 -0.21184,-0.546626 -0.29369,-0.886669 -0.0819,-0.340042 -0.667309,-0.06904 -0.667309,-0.06904 z"
       id="path1112" />
    <path
       style="fill:#02053d;fill-opacity:1;stroke:none;stroke-width:0.264583px;stroke-linecap:butt;stroke-linejoin:miter;stroke-opacity:1"
       d="m 100.79247,58.689009 c 0,0 -1.677837,0.221134 -1.84325,-0.129765 -0.165414,-0.350898 0.521888,-0.870947 0.541928,-1.460701 0.02003,-0.589753 -0.11017,-1.09093 -0.378275,-1.766369 -0.268105,-0.675439 -0.864558,-0.559043 -0.390779,-0.832035 0.473779,-0.272992 0.975135,-0.430504 1.750166,-0.823449 0.77504,-0.392944 1.67339,-0.607351 2.22638,-0.155938 0.553,0.451414 0.40926,0.85308 0.90983,1.267317 0.50056,0.41424 0.57793,0.933056 0.72912,1.513504 0.1512,0.580448 0.30542,0.741495 -0.0867,1.195028 -0.3921,0.453533 -0.50944,0.751811 -1.01802,0.911937 -0.50857,0.160125 -0.62431,-0.111694 -0.58032,-0.488731 0.044,-0.377036 -0.0386,-0.614865 0.30563,-0.921827 0.34424,-0.306959 0.43179,-0.925742 0.27784,-1.135213 -0.15396,-0.209468 -0.0109,-0.09951 -0.52062,0.0081 -0.50976,0.107563 -0.40692,-0.233979 -0.77444,-0.527439 -0.36752,-0.293463 -0.43322,-0.870514 -1.13077,-0.670015 -0.69755,0.200498 -0.22564,0.441574 -0.79555,0.705495 -0.569912,0.263922 -0.535579,-0.08797 -0.426161,0.703752 0.109419,0.791721 -0.26883,0.893332 0.435551,1.4433 0.70438,0.549971 0.76841,1.16309 0.76841,1.16309 z"
       id="path988" />
    <path
       style="fill:#119ddd;fill-opacity:1;stroke:none;stroke-width:0.264583px;stroke-linecap:butt;stroke-linejoin:miter;stroke-opacity:1"
       d="m 91.650086,62.894953 6.438339,-0.071 1.824141,4.628287 -6.356051,0.06199 z"
       id="path1235" />
    <ellipse
       style="opacity:0.721014;fill:none;stroke:#000000;stroke-width:0.370001"
       id="path1348"
       cx="95.432869"
       cy="65.115326"
       rx="0.76730734"
       ry="0.69341892" />
    <path
       style="fill:none;stroke:#000000;stroke-width:0.264583px;stroke-linecap:butt;stroke-linejoin:miter;stroke-opacity:1"
       d="m 93.556512,67.514228 8.670468,0.297659 -0.003,-0.384881 -8.237372,-0.365419 z"
       id="path1473" />
    <path
       style="fill:#f6ad80;fill-opacity:1;stroke:none;stroke-width:0.264583px;stroke-linecap:butt;stroke-linejoin:miter;stroke-opacity:1"
       d="m 55.342384,102.27814 c 0,0 -0.966956,2.53126 1.699332,3.99685 2.666288,1.46559 1.943968,1.77794 4.666128,1.40338 2.722158,-0.37457 1.846416,-0.5919 3.619743,-1.2796 1.773328,-0.6877 2.707916,-2.62901 2.707916,-2.92141 0,-0.2924 -3.86973,2.47248 -4.857306,2.1082 -0.987578,-0.36427 -1.323075,-0.42277 -2.193973,-0.67159 -0.870897,-0.24883 -1.893906,-2.54828 -1.893906,-2.54828 0,0 2.676319,1.92912 4.191445,0.80011 1.515123,-1.12901 1.831787,-1.18081 3.027103,-2.68406 1.195316,-1.503246 -0.380669,-5.54745 -0.380669,-5.54745 0,0 -1.839764,2.947106 -2.52289,3.927753 -0.683127,0.980646 -0.824505,1.577177 -1.986375,1.266347 -1.16187,-0.310823 -2.171983,-0.791215 -2.904847,-0.0254 -0.732864,0.76582 -3.171701,2.17513 -3.171701,2.17513 z"
       id="path4263"
       sodipodi:nodetypes="csssssscsscsssc" />
    <path
       style="fill:#17d5bb;fill-opacity:1;stroke:none;stroke-width:0.264583px;stroke-linecap:butt;stroke-linejoin:miter;stroke-opacity:1"
       d="m 64.761424,119.63089 0.96915,-30.141807 c 0,0 4.324956,-12.763722 13.16427,-14.528723 8.839313,-1.764998 33.297836,-1.586219 33.297836,-1.586219 l 0.48788,17.123838 c 0,0 4.18768,2.090605 5.89703,0.868918 1.70934,-1.221687 8.3681,-1.286986 10.18784,0.862724 1.81975,2.149711 2.17165,2.765161 1.81975,4.407083 -0.3519,1.641922 -1.80597,6.351446 -3.62459,7.303986 -1.81861,0.95253 -6.90571,-0.31862 -9.06517,-1.36207 -2.15947,-1.04345 -4.90302,-0.43167 -5.20039,3.01409 -0.29737,3.44578 -0.25505,15.01401 -0.25505,15.01401 l -16.573629,0.0271 c 0,0 -1.6032,-3.60575 0.138226,-5.89898 1.741427,-2.29324 1.764342,-9.11941 -1.405675,-11.41759 -3.170021,-2.29818 -8.755544,-0.2041 -9.876364,1.10982 -1.12082,1.31392 -2.056236,5.43855 -2.056236,5.43855 0,0 -2.813902,1.29092 -3.744577,3.72672 -0.890345,2.33025 0.09113,5.79115 0.497504,6.58902 0.83116,1.63188 -14.657805,-0.55048 -14.657805,-0.55048 z"
       id="path2469"
       sodipodi:nodetypes="ccsccssssssccssscsscc" />
    <path
       style="fill:#07155d;fill-opacity:1;stroke:none;stroke-width:0.264583px;stroke-linecap:butt;stroke-linejoin:miter;stroke-opacity:1"
       d="m 96.359465,79.763619 -1.708771,2.820538 c 0,0 0.1793,0.632388 0.836125,0.16909 0.656823,-0.463302 1.857463,-1.624531 2.229559,-1.363681 0.372095,0.260852 0.517219,0.234979 0.77478,0.428677 0.257561,0.193699 0.979728,0.208058 0.407321,-0.788048 -0.572411,-0.996106 -1.125734,-1.68765 -1.125734,-1.68765 z"
       id="path1726" />
    <path
       style="fill:#07155d;fill-opacity:1;stroke:none;stroke-width:0.264583px;stroke-linecap:butt;stroke-linejoin:miter;stroke-opacity:1"
       d="m 84.355703,79.118446 -3.540394,-0.02889 c 0,0 -0.574485,0.540134 0.122036,0.868871 0.696521,0.328737 1.432047,0.566999 1.994956,0.763899 0.562909,0.196898 0.61473,0.222772 0.588983,0.762583 -0.02574,0.539813 -0.472294,1.14078 -0.005,1.121701 0.46731,-0.01908 0.724056,-0.359466 1.138889,-0.904838 0.414832,-0.545373 0.92607,-1.880092 0.92607,-1.880092 z"
       id="path1854" />
    <path
       style="fill:#ffb44d;fill-opacity:1;stroke:none;stroke-width:0.264583px;stroke-linecap:butt;stroke-linejoin:miter;stroke-opacity:1"
       d="m 98.088422,62.823952 c 0,0 0.606732,-2.833698 1.082075,-3.133096 0.475345,-0.299397 1.102423,-0.378325 1.522723,-0.40078 0.42031,-0.02246 2.18364,-0.441449 3.06101,-0.265102 0.87737,0.17635 1.2098,0.734076 1.89612,1.772695 0.68633,1.038622 1.26398,2.759843 1.43087,3.45176 0.16689,0.691917 0.54407,1.757159 0.10938,2.218171 -0.4347,0.461013 -1.09585,0.410467 -2.35234,0.622388 -1.25648,0.21192 -2.17068,0.57912 -2.61428,0.337018 -0.4436,-0.242102 -0.46103,-1.143566 -0.43904,-1.312476 0.022,-0.16891 0.3821,-0.279625 1.52394,-0.29985 1.14185,-0.02021 1.53582,0.278429 1.58076,-0.456703 0.0449,-0.735134 0.0931,-1.63263 -0.10313,-0.983189 -0.19621,0.649441 0.34727,1.162691 -0.64813,1.267254 -0.99539,0.104566 -0.86083,0.419955 -1.17124,0.758097 -0.31041,0.338143 -1.40955,0.447424 -1.80081,0.425432 -0.39126,-0.02199 -1.396708,0.532392 -1.482589,-0.395356 -0.08588,-0.927749 0.255637,-1.383388 -0.05172,-2.054821 -0.30735,-0.671433 -1.543603,-1.551442 -1.543603,-1.551442 z"
       id="path2339" />
    <path
       style="fill:#fe6f7d;fill-opacity:1;stroke:none;stroke-width:0.264583px;stroke-linecap:butt;stroke-linejoin:miter;stroke-opacity:1"
       d="m 84.355706,79.118448 1.225553,0.703231 5.6433,-5.672658 4.571204,5.447291 c 0,0 1.838428,-0.0032 1.902333,-0.455141 0.06391,-0.451969 -4.808308,-7.508314 -4.808308,-7.508314 0,0 4.758984,1.193765 5.14848,1.249508 0.389496,0.05574 5.111142,0.03009 5.594212,-0.05789 0.48307,-0.08797 2.54687,-2.704496 0.48276,-5.047765 C 91.741039,66.89364 91.741039,66.89364 91.741039,66.89364 l -4.006879,6.301722 0.175948,0.529211 z"
       id="path1599" />
    <path
       style="fill:#2f96cd;fill-opacity:1;stroke:none;stroke-width:0.264583px;stroke-linecap:butt;stroke-linejoin:miter;stroke-opacity:1"
       d="m 126.25579,123.5244 c 0,0 -1.26576,-10.69881 -0.22744,-11.11556 1.03831,-0.41676 3.59012,-6.68532 6.72188,-6.7463 3.69459,1.27247 3.87219,1.43988 4.77726,1.31146 0.90507,-0.12843 3.94773,-1.74921 2.62249,0.69362 -1.32524,2.44283 -4.24919,5.57712 -4.72266,6.51501 -0.47346,0.93788 -1.10434,4.7356 -0.35494,6.15164 0.7494,1.41604 0.38114,2.36167 0.74689,2.73112 0.36575,0.36945 -3.79978,0.96618 -3.79978,0.96618 0,0 -0.96677,-7.35784 -0.79082,-8.87183 0.17595,-1.514 0.94908,-2.26346 1.6521,-2.92321 0.70303,-0.65975 0.67983,-2.23216 -0.50718,-0.568 -1.18702,1.66416 -2.588,2.01292 -2.84775,2.75002 -0.25975,0.73708 -0.27078,7.6495 0.1046,8.49781 0.37538,0.8483 -3.37465,0.60804 -3.37465,0.60804 z"
       id="path2749" />
    <path
       style="fill:#135677;fill-opacity:1;stroke:none;stroke-width:0.264583px;stroke-linecap:butt;stroke-linejoin:miter;stroke-opacity:1"
       d="m 135.52608,89.114999 c 0,0 -0.33792,1.901074 -0.49789,0.691275 -0.15996,-1.2098 -0.60225,-1.838288 0.5022,-2.149983 1.10445,-0.311693 1.17319,-1.395553 2.39038,-0.35568 1.21719,1.039874 2.31068,2.373837 3.9111,3.57758 1.60041,1.20374 2.96386,3.051365 4.08719,2.952331 1.12333,-0.09903 1.97269,4.494774 -0.32276,4.587957 -2.29546,0.09318 -4.65381,-1.655124 -6.01079,-2.367618 -1.35699,-0.712497 -1.76062,-1.932527 -2.19028,-2.015863 -0.42967,-0.08334 -0.51764,-0.429776 -0.6496,-1.07455 -0.13196,-0.644776 0.38944,-1.241002 0.38944,-1.481704 0,-0.240699 -0.44129,-0.313647 -0.44129,-0.313647 0,0 0.0496,-1.075375 -0.24337,-1.594969 -0.29293,-0.519594 -0.92433,-0.455129 -0.92433,-0.455129 z"
       id="path3014" />
    <path
       style="fill:none;stroke:#189bd8;stroke-width:0.47625;stroke-linecap:butt;stroke-linejoin:miter;stroke-miterlimit:4;stroke-dasharray:none;stroke-opacity:1"
       d="m 34.049525,136.79305 18.396378,6.95044 -20.085306,8.05926 19.605085,7.67228 -20.25152,7.93425 14.393542,5.03033"
       id="path3320" />
    <path
       style="fill:none;stroke:#189bd8;stroke-width:0.555625;stroke-linecap:butt;stroke-linejoin:miter;stroke-miterlimit:4;stroke-dasharray:none;stroke-opacity:1"
       d="m 49.148208,137.0409 -16.827439,6.76791 19.992015,8.18255 -20.844587,6.78004 21.02303,8.32531 -12.690179,5.472"
       id="path3456" />
    <ellipse
       style="opacity:0.721014;fill:#032261;fill-opacity:1;stroke:#000000;stroke-width:0.309958"
       id="path3709"
       cx="36.436138"
       cy="177.80212"
       rx="2.6188006"
       ry="2.6284359" />
    <ellipse
       style="opacity:0.721014;fill:#032261;fill-opacity:1;stroke:#000000;stroke-width:0.309958"
       id="path3709-3"
       cx="50.365105"
       cy="177.69034"
       rx="2.6188006"
       ry="2.6284359" />
    <rect
       style="opacity:0.721014;fill:#06105d;fill-opacity:1;stroke:#000000;stroke-width:0.370001"
       id="rect3582"
       width="23.26918"
       height="4.3119464"
       x="31.026081"
       y="172.21646"
       ry="0.28963935" />
    <path
       style="fill:#e7c279;fill-opacity:1;stroke:none;stroke-width:0.264583px;stroke-linecap:butt;stroke-linejoin:miter;stroke-opacity:1"
       d="m 36.209451,131.62463 c 0,0 -1.360088,2.12591 -0.969174,2.54426 0.390914,0.41835 0.145772,0.2834 2.2317,0.53855 2.085927,0.25515 3.67031,0.11864 3.67031,0.11864 0,0 0.154504,-1.05179 -0.522248,-1.3414 -0.676754,-0.2896 -1.668859,-0.81439 -2.445271,-1.45661 -0.776414,-0.64221 -1.965317,-0.40344 -1.965317,-0.40344 z"
       id="path4988" />
    <path
       style="fill:#143664;fill-opacity:1;stroke:none;stroke-width:0.264583px;stroke-linecap:butt;stroke-linejoin:miter;stroke-opacity:1"
       d="m 44.664788,108.499 c 0,0 8.090366,-0.99319 9.390978,2.22514 1.300612,3.21835 3.471466,7.67733 3.296618,9.03606 -0.174847,1.35873 0.216279,2.40418 -2.115783,5.82539 -2.332061,3.42122 -4.361169,7.13921 -4.361169,7.13921 l -3.264053,0.26594 c 0,0 2.589617,-8.5187 3.381383,-10.37674 0.791765,-1.85804 -0.858883,-5.49753 -2.070619,-7.58181 -1.211736,-2.08428 -1.141423,1.37404 -1.751057,3.26135 -0.609632,1.88732 -1.450015,4.38372 -3.367136,6.73481 -1.917123,2.35109 -4.421123,5.85703 -4.909769,6.86399 -0.488646,1.00696 -4.292767,0.80906 -4.292767,0.80906 0,0 1.959896,-3.59823 3.619333,-7.9813 1.659441,-4.38308 4.296297,-13.43796 5.236922,-14.64251 0.940628,-1.20455 1.207119,-1.57859 1.207119,-1.57859 z"
       id="path3980" />
    <path
       style="fill:#fbb745;fill-opacity:1;stroke:none;stroke-width:0.264583px;stroke-linecap:butt;stroke-linejoin:miter;stroke-opacity:1"
       d="m 44.664788,108.499 c 0,0 5.977118,-10.826135 8.634304,-12.0164 2.657184,-1.190265 4.233148,-1.41496 4.233148,-1.41496 0,0 0.751988,0.576813 1.103884,1.774367 0.351896,1.197555 -0.543335,0.575789 -0.104571,2.085581 0.438764,1.509792 -1.007271,3.506842 -1.640845,4.370872 -0.633574,0.86402 -2.207226,4.26196 -2.562821,6.06032 -0.355594,1.79835 -0.883438,4.20916 -0.883438,4.20916 z"
       id="path4121" />
    <path
       style="fill:none;stroke:none;stroke-width:0.264583px;stroke-linecap:butt;stroke-linejoin:miter;stroke-opacity:1"
       d="m 58.886372,97.564238 c 0,0 1.706259,1.646647 1.862082,2.043784 0.155821,0.397138 -1.658138,2.757668 -1.658138,2.757668 l -2.462477,-2.10226 z"
       id="path4406" />
    <path
       style="fill:#183461;fill-opacity:1;stroke:none;stroke-width:0.264583px;stroke-linecap:butt;stroke-linejoin:miter;stroke-opacity:1"
       d="m 57.53224,95.067637 c 0,0 -0.07702,-2.717874 0.711729,-3.586845 0.788747,-0.868968 -0.564705,-1.04245 1.785014,-1.04245 2.349717,0 3.625287,-0.197734 4.167672,0.03479 0.542385,0.232521 0.870156,1.241055 0.270587,1.778418 -0.59957,0.537361 -0.910603,1.511266 -0.910603,1.511266 0,0 -1.646833,-0.668909 -2.13259,-0.388978 -0.485754,0.27993 -0.414112,-0.0089 -0.53984,0.731677 -0.125727,0.740571 -0.46823,1.840354 -0.561541,0.914156 -0.09331,-0.926198 0.270698,-1.996755 -0.372734,-1.86786 -0.643435,0.128897 -1.631789,0.139133 -1.345835,0.949936 0.285954,0.8108 -1.071859,0.96589 -1.071859,0.96589 z"
       id="path4550" />
    <path
       style="fill:#e7c279;fill-opacity:1;stroke:none;stroke-width:0.264583px;stroke-linecap:butt;stroke-linejoin:miter;stroke-opacity:1"
       d="m 47.611379,132.99074 0.367215,1.3644 5.225584,0.26287 c 0,0 0.546783,-0.75135 -0.419997,-1.19423 -0.966779,-0.44287 -2.243285,-1.54211 -2.243285,-1.54211 z"
       id="path4841" />
    <path
       style="fill:#1edbbb;fill-opacity:1;stroke:none;stroke-width:0.264583px;stroke-linecap:butt;stroke-linejoin:miter;stroke-opacity:1"
       d="m 77.405951,142.07227 2.136535,-0.75333 c 0,0 0.150457,-1.12033 -0.19221,-1.60855 -0.342667,-0.48822 -1.253558,-0.24237 -1.584169,-0.36679 -0.33061,-0.12441 -0.66009,0.2561 0.08639,-1.31246 0.746482,-1.56855 1.263944,-1.47622 0.977128,-3.34531 -0.286817,-1.86908 0.691861,-2.30785 -1.065218,-2.6194 -1.75708,-0.31154 -5.089382,1.83621 -6.512219,4.16044 -1.422836,2.32423 -2.521249,2.83999 -1.548519,4.81743 0.97273,1.97745 1.364549,2.23227 2.285429,2.5122 0.920879,0.27993 1.285179,0.59081 2.571231,0.5597 1.28605,-0.0311 2.84562,-2.04393 2.84562,-2.04393 z"
       id="path5138" />
    <path
       style="fill:#011065;fill-opacity:1;stroke:none;stroke-width:0.264583px;stroke-linecap:butt;stroke-linejoin:miter;stroke-opacity:1"
       d="m 77.308606,144.27828 c 0,0 0.878652,-1.59992 0.05065,-1.96638 -0.827998,-0.36646 -1.674731,1.11222 -2.781017,1.15677 -1.106284,0.0445 -3.914029,-0.23236 -3.327839,-1.19014 0.586189,-0.95777 -0.07101,-1.67577 1.160081,-2.94006 1.231096,-1.26429 0.770803,-1.8248 1.855851,-2.7732 1.085051,-0.9484 2.33372,-3.3793 2.634811,-3.53424 0.301088,-0.15494 1.641668,-0.21428 1.641668,-0.21428 0,0 0.565901,0.0274 0.780275,-0.82312 0.214376,-0.85057 0.05814,-1.5688 -0.366919,-2.46598 -0.425056,-0.89717 -2.138524,-0.99189 -1.006089,-2.11446 1.132435,-1.12257 0.712216,0.84342 1.161039,0.84342 0.448824,0 0.498965,-1.01189 1.338369,-1.54065 0.839406,-0.52876 0.99029,-0.73926 1.456047,-0.80147 0.465759,-0.0622 0.429384,-0.16661 1.014365,0.5971 0.58498,0.7637 0.142748,1.63634 0.677076,1.66744 0.534329,0.0311 1.135118,-2.02357 1.104017,-2.77756 -0.0311,-0.75398 0.402825,-1.83026 -0.752306,-2.35961 -1.155134,-0.52934 -3.057284,-1.61408 -4.583269,-0.47004 -1.525984,1.14403 -3.471531,4.0354 -3.981857,5.32793 -0.510326,1.29252 -0.302212,3.23616 -2.204252,3.87051 -1.902042,0.63435 -2.999684,0.85807 -3.210134,1.86798 -0.210449,1.0099 0.07487,2.16505 -0.560011,2.98058 -0.634879,0.81554 -1.459143,0.82694 -1.534814,2.21761 -0.07567,1.39067 -0.979001,2.5194 -0.0181,4.30674 0.960897,1.78734 3.526157,1.19732 4.84596,1.25952 1.319802,0.0622 4.606398,-0.12441 4.606398,-0.12441 z"
       id="path5136" />
    <path
       style="fill:#f6c6c0;fill-opacity:1;stroke:none;stroke-width:0.264583px;stroke-linecap:butt;stroke-linejoin:miter;stroke-opacity:1"
       d="m 88.24983,140.68654 c 0,0 1.222341,-2.62478 1.188292,-2.81783 -0.03405,-0.19304 0.269838,-0.779 -0.929749,-0.33569 -1.199586,0.44331 -1.820069,0.79024 -1.646256,1.38028 0.173813,0.59004 1.387713,1.77324 1.387713,1.77324 z"
       id="path5893" />
    <path
       style="fill:#011260;fill-opacity:1;stroke:none;stroke-width:0.264583px;stroke-linecap:butt;stroke-linejoin:miter;stroke-opacity:1"
       d="m 83.38523,136.31944 5.836762,0.25611 -3.562369,8.31603 -5.6573,-0.44833 z"
       id="path5208" />
    <path
       style="fill:#f6c6c0;fill-opacity:1;stroke:none;stroke-width:0.264583px;stroke-linecap:butt;stroke-linejoin:miter;stroke-opacity:1"
       d="m 79.542486,141.31894 c 0,0 0.587893,-0.87533 1.734579,-0.84027 1.146683,0.0351 1.42267,0.32167 1.727885,-0.0344 0.305218,-0.35604 0.06813,-0.96491 -0.129807,-1.25475 -0.197938,-0.28984 -0.375248,-0.25576 -1.345735,-0.24002 -0.970489,0.0157 -1.581107,0.45206 -2.005375,0.54838 -0.424269,0.0963 0.01844,1.82103 0.01844,1.82103 z"
       id="path5359" />
    <path
       style="fill:none;stroke:none;stroke-width:0.264583px;stroke-linecap:butt;stroke-linejoin:miter;stroke-opacity:1"
       d="m 82.963963,132.22327 c 0,0 1.145035,1.18539 1.64473,2.44579 0.499694,1.2604 0.47865,2.28952 0.47865,2.28952 0,0 0.596955,0.15899 1.673486,0.0459 1.076534,-0.11305 1.430854,-0.37691 0.604534,-1.56856 -0.826323,-1.19165 -1.220536,-1.56211 -1.846945,-2.48694 -0.626407,-0.92484 -2.554455,-0.72575 -2.554455,-0.72575 z"
       id="path5584" />
    <path
       style="fill:#030f5a;fill-opacity:1;stroke:#000000;stroke-width:0.264583px;stroke-linecap:butt;stroke-linejoin:miter;stroke-opacity:1"
       d="m 75.536951,178.56736 -0.171162,3.63326 1.065115,0.0364 0.315063,-1.02753 c 0,0 2.448343,-0.0378 3.704402,0.33796 1.256056,0.37578 1.431234,0.6002 1.989547,0.58534 0.558314,-0.0149 1.017302,-0.43228 0.443304,-0.86132 -0.573995,-0.42904 -0.04721,-0.56819 -1.17952,-0.74414 -1.132311,-0.17595 -1.658575,0.56251 -2.342007,-0.23241 -0.683432,-0.79492 -1.644179,-1.83796 -1.644179,-1.83796 z"
       id="path6093" />
    <path
       style="fill:#030f5a;fill-opacity:1;stroke:#000000;stroke-width:0.264583px;stroke-linecap:butt;stroke-linejoin:miter;stroke-opacity:1"
       d="m 88.18741,179.04303 c 0,0 -0.382905,0.38106 -0.382905,1.06248 0,0.68142 0.09691,1.69917 0.09691,1.91774 0,0.21856 -0.06362,0.3486 0.495533,0.42543 0.559152,0.0768 0.807712,-0.1159 0.807712,-0.1159 l 0.05739,-0.95028 c 0,0 1.148382,0.11078 1.731719,0.25405 0.583338,0.14326 0.202409,0.10979 1.257546,0.30396 1.055137,0.19417 1.197817,0.37643 1.896084,0.37643 0.698267,0 2.386446,-0.29308 1.026493,-0.9376 -1.359953,-0.64452 -0.648385,-0.85842 -1.64469,-0.74927 -0.996304,0.10915 -1.443974,0.0274 -1.908736,-0.26009 -0.464761,-0.28745 -1.507677,-1.20675 -1.507677,-1.20675 z"
       id="path6138" />
    <path
       style="fill:#fcaa82;fill-opacity:1;stroke:none;stroke-width:0.264583px;stroke-linecap:butt;stroke-linejoin:miter;stroke-opacity:1"
       d="m 81.071722,143.81694 -3.763116,0.46134 c 0,0 -1.995689,3.78675 -2.039676,5.87572 -0.04399,2.08896 -0.506928,4.12038 -0.418954,6.08491 0.08797,1.96453 0.571825,7.90586 0.329941,10.59648 -0.241885,2.69061 -0.06594,5.24904 -0.197898,6.85482 -0.131961,1.60577 -0.02291,5.38748 0.0471,5.57664 0.07002,0.18917 3.649143,0.23316 3.649143,0.23316 0,0 0.696632,-8.513 1.137423,-10.86193 0.440791,-2.34894 0.528389,-2.69773 0.899943,-5.67154 0.371555,-2.97381 0.502203,-4.96806 0.697593,-5.63783 0.195386,-0.66976 0.228637,-1.30912 1.130252,1.31287 0.901618,2.622 1.262406,6.82879 1.843773,8.58104 0.581366,1.75224 0.662096,2.24415 1.285793,5.07303 0.623697,2.82889 2.010732,6.88188 2.266547,7.30959 0.255813,0.42771 3.081706,0.29598 3.081706,0.29598 0,0 -0.679506,-5.53571 -1.121934,-8.77976 -0.442428,-3.24405 0.0061,-2.39788 -0.829323,-7.17893 -0.835449,-4.78105 -2.593192,-14.02454 -3.001804,-16.53775 -0.408615,-2.5132 -4.996513,-3.58784 -4.996513,-3.58784 z"
       id="path6049" />
    <path
       style="fill:#3e8e7b;fill-opacity:1;stroke:none;stroke-width:0.264583px;stroke-linecap:butt;stroke-linejoin:miter;stroke-opacity:1"
       d="m 172.43644,145.54361 c 0,0 1.05894,-11.3981 1.23489,-14.87365 0.17595,-3.47555 -1.32636,-6.1478 -1.06244,-8.44124 0.26392,-2.29344 -0.0892,-3.71124 0.57633,-4.87332 0.66555,-1.16209 0.0883,-1.90989 2.81231,-7.52145 2.72401,-5.61156 0.30424,-10.375875 2.72401,-8.29579 2.41976,2.08009 1.64574,1.211 1.99544,4.06602 0.34969,2.85501 0.8478,1.43608 0.78986,5.53532 -0.058,4.09924 -0.7129,3.66524 0.0804,7.45449 0.79334,3.78925 2.39953,2.81759 0.64001,6.36385 -1.75952,3.54627 -0.17137,6.92146 -1.60658,9.66151 -1.43522,2.74004 -1.8937,3.43897 -2.74313,6.12951 -0.84943,2.69055 1.2324,8.6181 -1.52937,8.0024 -2.76177,-0.6157 -3.91177,-3.20765 -3.91177,-3.20765 z"
       id="path10164" />
    <path
       style="fill:#9ad7cb;fill-opacity:1;stroke:none;stroke-width:0.264583px;stroke-linecap:butt;stroke-linejoin:miter;stroke-opacity:1"
       d="m 200.71323,156.82337 c 0,0 7.25284,-9.9181 3.0744,-11.37187 -4.17844,-1.45377 -11.87948,-2.05348 -11.87948,-2.05348 l -2.80991,6.66804 z"
       id="path8837" />
    <path
       style="fill:#9ad8cb;fill-opacity:1;stroke:none;stroke-width:0.264583px;stroke-linecap:butt;stroke-linejoin:miter;stroke-opacity:1"
       d="m 158.71197,161.73924 10.58733,-16.20409 c 0,0 28.23304,14.22814 38.00828,7.68315 9.77524,-6.54499 12.52361,-0.98796 7.96232,5.48735 -4.56129,6.4753 -9.37148,16.11887 -9.37148,16.11887 l -54.21196,-2.15178 z"
       id="path7176" />
    <path
       style="fill:#3e8e7b;fill-opacity:1;stroke:none;stroke-width:0.264583px;stroke-linecap:butt;stroke-linejoin:miter;stroke-opacity:1"
       d="m 176.34821,148.75126 3.12971,9.76495 c 0,0 1.56564,-2.66071 4.16073,-4.21232 2.59508,-1.55161 9.21418,-6.90682 12.0438,-7.79209 2.82962,-0.88526 4.00173,0.69013 4.96945,-3.77825 0.96771,-4.46838 5.58724,-11.80652 5.58724,-11.80652 0,0 -1.8017,-0.49707 -6.18482,2.62154 -4.38312,3.11861 -7.10358,5.15014 -7.62488,7.49979 -0.52129,2.34966 -1.63938,1.49887 -4.03702,2.54514 -2.39765,1.04627 -4.12318,0.22242 -6.41405,1.94811 -2.29088,1.72569 -5.63016,3.20965 -5.63016,3.20965 z"
       id="path10358" />
    <path
       style="fill:#fec3b4;fill-opacity:1;stroke:none;stroke-width:0.264583px;stroke-linecap:butt;stroke-linejoin:miter;stroke-opacity:1"
       d="m 170.36966,150.74764 3.77942,0.43931 2.19913,-2.43569 -6.00621,-1.35749 z"
       id="path27404" />
    <path
       style="fill:#159cd4;fill-opacity:1;stroke:none;stroke-width:0.264583px;stroke-linecap:butt;stroke-linejoin:miter;stroke-opacity:1"
       d="m 124.98659,127.16237 0.23099,16.2457 c 0,0 -1.06444,3.25087 -4.58502,1.51063 -3.52058,-1.74023 -7.62059,-4.77878 -11.1043,-1.11972 -3.48371,3.65905 -3.32587,5.32748 -2.11412,8.69622 1.21175,3.36875 2.59616,5.19846 7.90828,4.71581 5.31212,-0.48265 4.0685,-3.91711 7.12097,-1.45811 3.05247,2.45901 3.22758,1.15238 2.60707,5.10255 -0.62052,3.95016 -0.54462,13.40033 -0.54462,13.40033 l 31.18643,-0.16681 c 0,0 14.57233,-4.48816 16.24106,-16.78418 1.66873,-12.29603 0.0783,-29.66886 0.0783,-29.66886 l -17.83251,-0.0206 c 0,0 -2.22306,4.05568 -0.77503,5.2186 1.44802,1.16293 1.69688,9.66319 -1.49531,10.98629 -3.19219,1.3231 -12.39604,1.64995 -12.37959,-6.40919 0.0165,-8.05914 7.4652,-8.94021 0.47666,-9.76809 -6.98854,-0.82788 -15.01927,-0.48056 -15.01927,-0.48056 z"
       id="path6231" />
    <path
       style="fill:#125d7f;fill-opacity:1;stroke:none;stroke-width:0.264583px;stroke-linecap:butt;stroke-linejoin:miter;stroke-opacity:1"
       d="m 126.70135,125.05007 c 0,0 -4.84365,1.23846 -3.87476,1.66919 0.96889,0.43074 0.75558,0.62264 2.16,0.44311 1.40442,-0.17954 3.17826,-0.27367 3.76485,-0.30152 0.5866,-0.0279 0.73993,-0.59915 0.64662,-1.10951 -0.0933,-0.51035 0.10737,-0.45514 -0.6437,-0.31021 -0.75106,0.14493 -2.05301,-0.39106 -2.05301,-0.39106 z"
       id="path6279" />
    <path
       style="fill:#125d7f;fill-opacity:1;stroke:none;stroke-width:0.264583px;stroke-linecap:butt;stroke-linejoin:miter;stroke-opacity:1"
       d="m 132.96577,124.86504 c 0,0 -3.06486,1.16624 -3.24718,1.74829 -0.18233,0.58205 -0.51972,1.03529 0.90475,0.72391 1.42447,-0.31139 1.461,-0.3001 2.65495,-0.62408 1.19396,-0.32399 1.72453,-0.96543 2.04246,-0.96543 0.31792,0 0.0945,-0.91784 0.0945,-0.91784 0,0 -0.50153,0.53869 -1.27592,0.44472 -0.77438,-0.094 -1.17356,-0.40957 -1.17356,-0.40957 z"
       id="path6441" />
    <path
       style="fill:#fec3b4;fill-opacity:1;stroke:none;stroke-width:0.264583px;stroke-linecap:butt;stroke-linejoin:miter;stroke-opacity:1"
       d="m 167.05728,86.445269 c 0,0 -0.34159,1.129773 -0.55312,1.746705 -0.21152,0.616931 -0.17285,0.885753 0.15417,1.583896 0.32702,0.698143 0.15829,1.468094 1.08856,1.735688 0.93026,0.267594 2.7186,1.132956 3.16055,0.412091 0.44195,-0.720865 0.0944,-1.837515 -0.19385,-3.178307 -0.28821,-1.340795 -3.65631,-2.300073 -3.65631,-2.300073 z"
       id="path7266" />
    <path
       style="fill:#17d5bb;fill-opacity:1;stroke:none;stroke-width:0.264583px;stroke-linecap:butt;stroke-linejoin:miter;stroke-opacity:1"
       d="m 157.83789,86.684748 c 0,0 1.39853,-1.059232 2.23937,-0.802457 0.84085,0.256776 -0.29439,0.708112 1.41268,1.83647 1.70707,1.128358 1.924,1.560298 4.08476,2.200879 2.16075,0.640582 2.41291,1.621361 4.46636,0.713493 2.05345,-0.90787 2.87374,-2.445379 3.2223,-3.958338 0.34855,-1.512959 1.02717,-2.073947 1.02717,-2.073947 l 1.0626,-0.08329 c 0,0 -0.25546,0.817944 -0.43754,3.016618 -0.18209,2.198677 -0.036,2.751645 -0.88202,4.16655 -0.84601,1.414901 -2.15852,1.261655 -1.49624,3.012868 0.66228,1.751211 2.13031,6.088016 2.17077,7.201766 0.0405,1.11375 0.95123,1.94922 -1.23067,2.50799 -2.18189,0.55876 -3.96295,0.33587 -5.07536,-0.0278 -1.11241,-0.36366 -2.46212,-0.11077 -2.41813,-3.03228 0.044,-2.921519 0.62357,-3.19726 0.044,-5.263952 -0.57958,-2.066692 -0.11569,-1.760072 -2.45663,-3.478752 -2.34094,-1.718683 -4.11804,-3.274925 -4.43571,-4.095705 -0.31766,-0.82078 -1.29769,-1.840122 -1.29769,-1.840122 z"
       id="path6933" />
    <path
       style="fill:#0d5473;fill-opacity:1;stroke:none;stroke-width:0.264583px;stroke-linecap:butt;stroke-linejoin:miter;stroke-opacity:1"
       d="m 166.30084,87.240291 c 0,0 -0.37996,-1.592286 0.25913,-1.715915 0.6391,-0.123629 0.85468,-0.435679 2.38811,-0.282125 1.53343,0.153553 1.93852,0.499279 2.29014,1.349417 0.35162,0.850141 0.50301,1.374309 0.43758,1.930469 -0.0654,0.556157 -0.41978,1.465855 -0.87022,1.82472 -0.45043,0.358865 -0.94664,0.863005 -1.12151,0.331488 -0.17486,-0.531518 0.10708,-0.873976 -0.0221,-1.503677 -0.1292,-0.629703 -0.39945,-0.457755 -0.60747,-0.167841 -0.20803,0.289915 -0.51008,1.169662 -0.59343,0.417581 -0.0833,-0.75208 0.569,-1.172144 -0.17133,-1.584348 -0.74033,-0.412205 -1.31067,-0.76463 -1.98888,-0.599769 z"
       id="path7099" />
    <path
       style="fill:#0f5878;fill-opacity:1;stroke:none;stroke-width:0.264583px;stroke-linecap:butt;stroke-linejoin:miter;stroke-opacity:1"
       d="m 168.23682,102.4001 c 0,0 -1.16168,1.48437 -1.6546,3.75873 -0.49292,2.27436 -2.08704,6.21213 -2.08704,8.49242 0,2.2803 -1.09367,4.51291 -0.8303,6.17794 0.26337,1.66503 0.37819,2.74865 0.37819,2.74865 0,0 1.68873,0.65365 2.58024,0.61686 0.89151,-0.0368 0.29929,-1.27804 1.42592,-5.65254 1.12663,-4.3745 1.19245,-7.24152 1.92913,-8.36387 0.73668,-1.12236 1.35366,-2.29708 1.35366,-2.29708 0,0 0.01,-0.63262 1.16042,2.88902 1.1506,3.52163 -0.0866,0.0453 1.58965,5.90211 1.67624,5.85677 2.64451,8.12444 2.64451,8.12444 0,0 1.62959,0.52854 2.47007,0.48455 0.84048,-0.044 0.39986,-0.23925 -1.04918,-5.62334 -1.44903,-5.3841 -1.48681,-5.55095 -1.89048,-8.55462 -0.40367,-3.00366 -0.81489,-4.56557 -1.1676,-5.48682 -0.35271,-0.92124 -1.32633,-2.68674 -1.32633,-2.88567 0,-0.19894 -5.52626,-0.33078 -5.52626,-0.33078 z"
       id="path7434" />
    <path
       style="fill:#0f5878;fill-opacity:1;stroke:none;stroke-width:0.264583px;stroke-linecap:butt;stroke-linejoin:miter;stroke-opacity:1"
       d="m 165.11789,125.34227 -3.47828,1.61348 c 0,0 -0.93193,0.45787 0.9228,0.63475 1.85473,0.17688 2.63697,-0.18853 3.63412,-0.27732 0.99716,-0.0888 0.60436,-1.28626 0.60436,-1.28626 0,0 0.67552,-0.16982 -0.25624,-0.18379 -0.93175,-0.014 -1.42676,-0.50086 -1.42676,-0.50086 z"
       id="path7603" />
    <path
       style="fill:#0f5878;fill-opacity:1;stroke:none;stroke-width:0.264583px;stroke-linecap:butt;stroke-linejoin:miter;stroke-opacity:1"
       d="m 178.03166,125.44075 c 0,0 -1.22697,1.14606 -1.95929,1.96293 -0.73233,0.81687 -2.91897,1.6082 -0.17832,1.12435 2.74064,-0.48386 2.64225,-0.6696 3.37314,-0.97329 0.73089,-0.30369 0.55494,-1.46763 0.55494,-1.46763 0,0 0.37755,-0.0234 -0.25531,-0.0234 -0.63286,0 -1.53516,-0.62301 -1.53516,-0.62301 z"
       id="path7605" />
    <path
       style="fill:#f47984;fill-opacity:1;stroke:none;stroke-width:0.264583px;stroke-linecap:butt;stroke-linejoin:miter;stroke-opacity:1"
       d="m 203.29542,175.66875 c 0,0 -1.98585,3.28301 -2.0938,3.54891 -0.10794,0.26589 -0.94783,0.78694 -0.0216,1.18408 0.92624,0.39714 -0.12276,-0.3319 2.12811,-1.21598 2.25086,-0.88409 2.82523,-1.46665 3.17681,-1.83047 0.35157,-0.36381 -0.58652,-2.53077 -0.58652,-2.53077 z"
       id="path8357" />
    <rect
       style="opacity:0.721014;fill:none;stroke:#000000;stroke-width:0.370001"
       id="rect8522"
       width="19.430561"
       height="1.3847202"
       x="172.01163"
       y="127.63593"
       ry="0.28963935" />
    <path
       style="fill:none;stroke:#000000;stroke-width:0.264583px;stroke-linecap:butt;stroke-linejoin:miter;stroke-opacity:1"
       d="m 175.80764,128.4147 -8.71461,51.72828"
       id="path8699" />
    <path
       style="fill:none;stroke:#000000;stroke-width:0.264583px;stroke-linecap:butt;stroke-linejoin:miter;stroke-opacity:1"
       d="m 184.07183,128.54604 -7.51201,52.17119"
       id="path8701" />
    <path
       style="fill:none;stroke:#000000;stroke-width:0.264583px;stroke-linecap:butt;stroke-linejoin:miter;stroke-opacity:1"
       d="m 167.629,177.09973 9.54193,-0.002"
       id="path8880" />
    <path
       style="fill:#5f7c87;fill-opacity:1;stroke:#000000;stroke-width:0.264583px;stroke-linecap:butt;stroke-linejoin:miter;stroke-opacity:1"
       d="m 169.3842,166.52974 9.54193,-0.002"
       id="path8880-6" />
    <path
       style="fill:none;stroke:#000000;stroke-width:0.264583px;stroke-linecap:butt;stroke-linejoin:miter;stroke-opacity:1"
       d="m 170.59334,156.02364 9.54193,-0.002"
       id="path8880-7" />
    <path
       style="fill:none;stroke:#000000;stroke-width:0.264583px;stroke-linecap:butt;stroke-linejoin:miter;stroke-opacity:1"
       d="m 172.43644,145.54361 9.54193,-0.002"
       id="path8880-5" />
    <path
       style="fill:none;stroke:#000000;stroke-width:0.264583px;stroke-linecap:butt;stroke-linejoin:miter;stroke-opacity:1"
       d="m 186.42913,172.55429 9.54193,-0.002"
       id="path8880-27" />
    <path
       style="fill:none;stroke:#000000;stroke-width:0.264583px;stroke-linecap:butt;stroke-linejoin:miter;stroke-opacity:1"
       d="m 180.46777,128.50411 8.20308,52.64874"
       id="path26819" />
    <path
       style="fill:#f47984;fill-opacity:1;stroke:none;stroke-width:0.264583px;stroke-linecap:butt;stroke-linejoin:miter;stroke-opacity:1"
       d="m 186.4706,178.0588 c 0,0 -1.51416,0.95529 -2.52196,1.43845 -1.0078,0.48317 -2.17751,0.74761 -2.04744,1.37984 0.13007,0.63223 -1.02759,0.79117 2.02199,0.65664 3.04958,-0.13452 4.74766,-0.38088 4.74766,-0.38088 0,0 0.15122,-2.50993 0.15122,-3.01117 0,-0.50124 -2.35147,-0.0829 -2.35147,-0.0829 z"
       id="path8295" />
    <path
       style="fill:none;stroke:#000000;stroke-width:0.264583px;stroke-linecap:butt;stroke-linejoin:miter;stroke-opacity:1"
       d="m 173.607,136.48431 9.54193,-0.002"
       id="path8880-3" />
    <path
       style="fill:none;stroke:#000000;stroke-width:0.264583px;stroke-linecap:butt;stroke-linejoin:miter;stroke-opacity:1"
       d="m 180.62071,134.61935 9.54193,-0.002"
       id="path8880-56" />
    <path
       style="fill:none;stroke:#000000;stroke-width:0.264583px;stroke-linecap:butt;stroke-linejoin:miter;stroke-opacity:1"
       d="m 182.36622,143.40002 9.54193,-0.002"
       id="path8880-2" />
    <path
       style="fill:none;stroke:#000000;stroke-width:0.264583px;stroke-linecap:butt;stroke-linejoin:miter;stroke-opacity:1"
       d="m 183.63865,154.30389 9.54193,-0.002"
       id="path8880-9" />
    <path
       style="fill:none;stroke:#000000;stroke-width:0.264583px;stroke-linecap:butt;stroke-linejoin:miter;stroke-opacity:1"
       d="m 185.52316,163.11908 9.54193,-0.002"
       id="path8880-1" />
    <path
       style="fill:#fec3b4;fill-opacity:1;stroke:none;stroke-width:0.264583px;stroke-linecap:butt;stroke-linejoin:miter;stroke-opacity:1"
       d="m 182.36622,143.40002 c 0,0 1.28774,7.24234 4.49422,6.7145 1.86897,-0.30766 2.1017,-3.65503 0.8181,-5.36984 -0.91859,-1.2272 -3.28774,-1.01935 -3.28774,-1.01935 z"
       id="path106986"
       sodipodi:nodetypes="csscc" />
    <path
       style="fill:#0d5473;fill-opacity:1;stroke:none;stroke-width:0.264583px;stroke-linecap:butt;stroke-linejoin:miter;stroke-opacity:1"
       d="m 184.3908,143.72534 c 0,0 -0.44157,1.26585 -1.77363,1.50263 -1.33205,0.23677 -2.25992,0.70865 -2.46105,0.0882 -0.20113,-0.62047 -0.15979,-1.09739 0.84652,-2.06911 1.00631,-0.97172 1.35126,-2.13637 2.73169,-2.13637 1.38043,0 0.91003,0.22432 2.26278,0 1.35275,-0.22433 0.98398,-1.26067 2.07999,0.016 1.09601,1.27669 0.97463,1.29769 1.25219,2.40815 0.27755,1.11047 0.12498,1.39491 0.52932,2.43026 0.40435,1.03536 -1.43378,1.12806 -1.91603,0.82098 -0.48225,-0.30709 0.0238,-0.78688 -1.07075,-1.47851 -1.09459,-0.69163 -2.48103,-1.58224 -2.48103,-1.58224 z"
       id="path7776" />
    <path
       style="fill:none;stroke:none;stroke-width:0.264583px;stroke-linecap:butt;stroke-linejoin:miter;stroke-opacity:1"
       d="m 180.46777,128.50411 6.26139,51.2859"
       id="path9588" />
    <path
       style="fill:none;stroke:#000000;stroke-width:0.264583px;stroke-linecap:butt;stroke-linejoin:miter;stroke-opacity:1"
       d="m 188.92071,128.60759 8.4309,52.52594"
       id="path9398" />
    <path
       style="fill:#14375d;fill-opacity:1;stroke:none;stroke-width:0.264583px;stroke-linecap:butt;stroke-linejoin:miter;stroke-opacity:1"
       d="m 185.66116,179.10539 c 0,0 -1.3515,-8.58003 -0.48035,-9.81365 0.87115,-1.23362 2.40901,-3.29778 3.67511,-4.69584 1.2661,-1.39806 4.00236,-4.04771 4.00236,-4.04771 l 1.55628,-1.92828 6.29867,-1.79654 c 0,0 0.79339,3.86662 0.57345,5.85884 -0.21993,1.99222 -1.4793,4.80288 -0.23775,7.2193 1.24155,2.41642 1.63829,2.02377 2.84758,3.08502 1.20929,1.06124 2.00192,1.83799 2.00192,1.83799 0,0 -1.47472,1.56969 -2.48609,2.04613 -1.01138,0.47645 -3.40665,-1.41663 -4.62984,-3.1407 -1.22318,-1.72407 -3.24693,-2.67203 -3.24693,-4.33216 0,-1.66013 1.40783,-3.44664 -0.52852,-2.51485 -1.93634,0.93178 -4.77402,3.03399 -4.98576,4.53822 -0.21174,1.50423 -0.52496,2.88608 0.0855,4.63655 0.61049,1.75047 2.17682,2.96881 0.25005,2.96881 -1.92677,0 -4.69571,0.0789 -4.69571,0.0789 z"
       id="path8121" />
    <path
       style="fill:#fcaa82;fill-opacity:1;stroke:none;stroke-width:0.264583px;stroke-linecap:butt;stroke-linejoin:miter;stroke-opacity:1"
       d="m 173.58644,148.13556 c 0.95558,0 6.15726,0 8.64729,0 2.49003,0 2.02563,0.0299 3.08818,-0.50688 1.06256,-0.53679 1.39819,-0.42484 2.24582,-0.99878 0.84763,-0.57393 2.96176,-0.5437 4.10959,0.50813 1.14783,1.05183 3.53064,4.08335 5.35822,4.80769 1.82758,0.72433 1.60613,0.30324 2.69901,1.61193 1.09287,1.30869 1.65831,1.39799 1.65831,2.51685 0,1.11887 -0.005,1.32297 -0.13196,1.78744 -0.12711,0.46447 0.16159,0.44077 -2.85948,1.08277 -3.02108,0.642 -4.80112,0.85625 -4.80112,0.85625 0,0 -0.36861,-0.26893 -2.63103,-2.1477 -2.26243,-1.87877 -2.11498,-1.49378 -3.23174,-2.17834 -1.11676,-0.68457 -1.19331,-0.66433 -1.45029,-1.96921 -0.25699,-1.30489 0.81619,-1.79462 -0.73523,-2.06354 -1.55142,-0.26893 -2.87697,-0.0954 -6.21449,-0.31292 -3.33751,-0.21748 -5.18844,0.0577 -5.18844,0.0577 z"
       id="path7948" />
    <ellipse
       style="opacity:0.721014;fill:#0ea2d5;fill-opacity:1;stroke:none;stroke-width:0.268985"
       id="path115163"
       cx="36.358253"
       cy="177.90224"
       rx="1.8177173"
       ry="1.848699" />
    <ellipse
       style="display:inline;opacity:0.721014;fill:#0ea2d5;fill-opacity:1;stroke:#000000;stroke-width:0.268985"
       id="path115163-3"
       cx="50.40799"
       cy="177.78905"
       rx="1.8177173"
       ry="1.848699" />
    <path
       style="fill:#fbb745;stroke:none;stroke-width:0.264583px;stroke-linecap:butt;stroke-linejoin:miter;stroke-opacity:1;fill-opacity:1"
       d="m 55.342382,102.27814 4.416496,-2.08471 -0.872508,-2.629198 -3.384175,0.259962 z"
       id="path61294" />
  </g>
</svg>
