<?xml version="1.0" encoding="UTF-8" standalone="no"?>
<!-- Created with Inkscape (http://www.inkscape.org/) -->

<svg
   width="212mm"
   height="156mm"
   viewBox="0 0 212 156"
   version="1.1"
   id="svg5"
   inkscape:version="1.1.1 (3bf5ae0, 2021-09-20)"
   sodipodi:docname="teamwork.svg"
   xmlns:inkscape="http://www.inkscape.org/namespaces/inkscape"
   xmlns:sodipodi="http://sodipodi.sourceforge.net/DTD/sodipodi-0.dtd"
   xmlns="http://www.w3.org/2000/svg"
   xmlns:svg="http://www.w3.org/2000/svg">
  <sodipodi:namedview
     id="namedview7"
     pagecolor="#ffffff"
     bordercolor="#999999"
     borderopacity="1"
     inkscape:pageshadow="0"
     inkscape:pageopacity="0"
     inkscape:pagecheckerboard="0"
     inkscape:document-units="px"
     showgrid="false"
     inkscape:zoom="3.0075197"
     inkscape:cx="219.94869"
     inkscape:cy="409.14113"
     inkscape:window-width="1846"
     inkscape:window-height="1016"
     inkscape:window-x="74"
     inkscape:window-y="27"
     inkscape:window-maximized="1"
     inkscape:current-layer="layer2" />
  <defs
     id="defs2" />
  <g
     inkscape:groupmode="layer"
     id="layer2"
     inkscape:label="Drawing"
     style="display:inline">
    <path
       style="fill:none;fill-opacity:1;stroke:none;stroke-width:0.264583px;stroke-linecap:butt;stroke-linejoin:miter;stroke-opacity:1"
       d="m 187.74286,109.14364 c 0,0 8.29876,-27.158165 1.01857,-35.24147 -7.28019,-8.083315 -46.01862,-20.217924 -46.01862,-20.217924 0,0 -26.81065,-9.841423 -31.03013,-13.432446 -4.21949,-3.59102 -18.497001,-4.701862 -21.383023,-4.701862 -2.886025,0 -39.944928,8.959947 -39.944928,8.959947 l -13.06313,13.791232 c 0,0 -18.965926,17.188014 -15.24554,24.366792 3.720385,7.178781 -11.045106,18.022871 -10.520511,24.897571 0.524595,6.8747 16.069347,28.20244 16.069347,28.20244 l 85.376505,3.79309 75.17259,-3.47996 z"
       id="path54667" />
    <path
       style="fill:#3e8e7b;fill-opacity:1;stroke:none;stroke-width:0.264583px;stroke-linecap:butt;stroke-linejoin:miter;stroke-opacity:1"
       d="m 161.00228,103.77181 c 0,0 2.74435,-7.369899 6.31364,-8.53964 3.56929,-1.169754 2.88354,-2.585508 5.19216,-4.089859 2.30863,-1.504351 4.50969,-6.408564 6.3055,-9.793273 1.7958,-3.384712 4.1659,-4.944293 4.61128,-11.143087 0.44538,-6.198794 1.16535,-11.145347 0.90143,-15.427124 -0.26392,-4.281794 -2.72152,-2.50708 -1.3034,-6.250344 1.41813,-3.743264 3.68698,-5.922735 0.42747,-3.895535 -3.25951,2.027201 -6.02375,4.420735 -6.37751,7.399393 -0.35376,2.978656 -2.45686,6.716393 -4.21634,9.968175 -1.75948,3.251772 -3.98404,3.202822 -2.91944,7.780428 1.0646,4.577613 1.55852,8.311752 0.78724,9.975833 -0.77128,1.664081 0.0897,6.345324 -2.67992,8.114252 -2.76961,1.768931 -1.86319,4.547246 -2.8019,6.169257 -0.93872,1.622011 -3.68034,4.860443 -3.94582,6.188464 -0.26547,1.32803 -3.05616,2.92736 -3.05616,2.92736 z"
       id="path9971" />
    <path
       style="fill:#bff3e6;fill-opacity:1;stroke:none;stroke-width:0.264583px;stroke-linecap:butt;stroke-linejoin:miter;stroke-opacity:1"
       d="m 15.680238,131.54896 c 0,0 -23.1070007,1.19616 -5.8276487,6.0067 17.2793607,4.81053 65.7050997,6.74811 76.7477087,6.74811 11.042557,0 94.617382,-3.80688 96.541332,-4.52397 1.92395,-0.71709 25.48508,-4.53921 16.44797,-7.23697 -9.0371,-2.69776 -70.46544,-3.64504 -70.46544,-3.64504 L 26.752418,121.63235 Z"
       id="path42794" />
    <path
       style="fill:#3e8e7b;fill-opacity:1;stroke:none;stroke-width:0.264583px;stroke-linecap:butt;stroke-linejoin:miter;stroke-opacity:1"
       d="m 157.61352,55.816312 c 0,0 4.06462,-4.269388 6.10407,-5.319057 2.03945,-1.049668 2.80663,-1.234667 4.18243,-3.104726 1.37581,-1.870059 2.16342,-1.796616 3.83048,-4.650603 1.66706,-2.853983 3.47592,-6.062575 3.47592,-6.062575 0,0 -1.59297,5.173705 -2.0758,6.40701 -0.48284,1.233305 1.44967,1.501764 -1.57277,4.243649 -3.02244,2.741888 -3.75296,4.410192 -5.47146,5.779881 -1.71851,1.36969 -7.07838,7.395434 -7.07838,7.395434 z"
       id="path39148" />
    <path
       style="fill:#fcaa82;fill-opacity:1;stroke:none;stroke-width:0.264583px;stroke-linecap:butt;stroke-linejoin:miter;stroke-opacity:1"
       d="m 110.58668,18.117831 1.06871,15.654604 c 0,0 1.41562,4.074253 4.4226,2.948451 3.00697,-1.125802 3.09224,-1.621293 5.66587,-1.299388 2.57362,0.321906 7.01488,2.211147 7.17916,6.26531 0.16428,4.054163 -0.83042,5.661932 -2.0213,6.09913 -1.19087,0.4372 -6.33172,3.654216 -9.49653,1.66243 -3.16482,-1.991784 -4.69859,-4.054269 -5.3021,-1.746528 -0.60352,2.307738 -0.85691,17.401118 -0.85691,17.401118 0,0 13.21155,-0.853954 15.89464,0.44758 2.6831,1.301531 3.72466,1.197231 2.75652,3.311689 -0.96813,2.114468 -4.49213,10.95334 0.97674,13.032118 5.46886,2.078768 8.33329,0.603697 9.48467,-2.998445 1.15137,-3.602139 3.83347,-3.724639 0.77813,-7.846215 -3.05534,-4.121586 -2.40834,-6.076944 1.37704,-5.821497 3.78537,0.25545 14.63259,0.562787 14.63259,0.562787 0,0 6.36832,-20.123035 0.90268,-31.513128 -5.46564,-11.390095 -6.11655,-14.086551 -14.02471,-15.078815 -7.90817,-0.992262 -17.40214,-0.983351 -23.21763,-1.365504 -5.81548,-0.382154 -10.22017,0.284303 -10.22017,0.284303 z"
       id="path6184" />
    <path
       style="fill:#f5c6c2;fill-opacity:1;stroke:none;stroke-width:0.264583px;stroke-linecap:butt;stroke-linejoin:miter;stroke-opacity:1"
       d="m 117.6875,77.938566 -0.0677,1.947141 1.3414,0.517297 1.10808,-0.552447 c 0,0 -0.19403,-1.565001 -0.44337,-2.092168 -0.24934,-0.527157 -1.93845,0.180177 -1.93845,0.180177 z"
       id="path6768" />
    <path
       style="fill:#f5c6c2;fill-opacity:1;stroke:none;stroke-width:0.264583px;stroke-linecap:butt;stroke-linejoin:miter;stroke-opacity:1"
       d="m 111.79856,77.916186 -0.44314,2.154548 1.7221,0.873367 c 0,0 1.44223,-0.35585 0.87445,-1.514584 -0.56777,-1.158731 -0.58761,-2.177558 -0.58761,-2.177558 z"
       id="path6604" />
    <path
       style="fill:#041364;fill-opacity:1;stroke:none;stroke-width:0.264583px;stroke-linecap:butt;stroke-linejoin:miter;stroke-opacity:1"
       d="m 11.865333,89.60866 -0.23898,2.434548 30.836663,0.0563 -0.0122,-2.577935 z"
       id="path19629" />
    <path
       style="fill:none;fill-opacity:1;stroke:none;stroke-width:0.264583px;stroke-linecap:butt;stroke-linejoin:miter;stroke-opacity:1"
       d="m 15.680238,131.54896 c 0,0 -8.7070132,-2.13554 -8.6053772,1.77375 0.101637,3.90928 34.7347222,8.14073 35.7721242,8.14073 1.037405,0 37.767606,1.65903 47.087565,1.83814 9.319936,0.17912 85.00593,-3.00585 95.01371,-4.32002 10.00777,-1.31416 23.99777,-6.39584 13.4995,-7.34405 -10.49827,-0.94821 -13.08046,-19.79359 -13.08046,-19.79359 0,0 5.80425,-10.44297 5.66508,-18.169614 -0.13917,-7.726645 0.91246,-12.659818 -3.01183,-19.596809 -3.92429,-6.936988 -13.88448,-13.293692 -20.27133,-14.718946 -6.38685,-1.425251 -34.79288,-1.703388 -34.79288,-1.703388 0,0 -16.86568,-14.9025 -21.9519,-18.753844 C 105.91823,35.049973 96.051274,33.155612 92.295305,34.063006 88.539336,34.970397 21.978769,94.8984 21.978769,94.8984 c 0,0 -0.79275,-3.101802 -5.003843,3.930969 -4.211095,7.032801 -5.090834,9.683261 -4.738938,13.354041 0.351895,3.67079 3.44425,19.36555 3.44425,19.36555 z"
       id="path11263" />
    <path
       style="fill:#9ad8cb;fill-opacity:1;stroke:none;stroke-width:0.264583px;stroke-linecap:butt;stroke-linejoin:miter;stroke-opacity:1"
       d="m 15.680238,127.23701 c 0,0 -4.571873,-4.05419 -6.0774837,-8.16223 -1.5056101,-4.10803 -7.3718268,-12.1051 -3.1886342,-12.45699 4.1831919,-0.3519 7.1109309,0.38768 9.1856769,1.42155 2.074746,1.03388 5.538266,1.75669 5.538266,1.75669 0,0 -7.125393,-7.47852 -4.46351,-8.34022 2.661883,-0.86169 3.821147,-0.37084 7.290212,0.87903 3.469064,1.24988 7.966634,3.65514 10.484403,4.1661 2.517773,0.51097 5.15897,1.25241 5.668076,0.91926 0.509104,-0.33316 3.26394,-0.13542 4.303872,-1.57438 1.039931,-1.43896 0.46759,-6.911111 4.409725,-1.70614 3.942133,5.20498 5.360525,13.14986 8.081719,15.32434 2.721192,2.17449 4.680535,10.77985 4.680535,10.77985 0,0 -7.99157,-1.98792 -12.391006,-1.46841 -4.399439,0.5195 -13.063739,0.321 -13.063739,0.321 z"
       id="path11463" />
    <path
       style="fill:#3e8e7b;fill-opacity:1;stroke:none;stroke-width:0.264583px;stroke-linecap:butt;stroke-linejoin:miter;stroke-opacity:1"
       d="m 13.576308,85.661574 c 0,0 5.679263,2.060448 5.679263,2.060448 0,0 3.109489,1.096324 5.832076,4.087816 2.722583,2.991492 2.575856,4.676153 4.331985,5.730717 1.756127,1.054564 1.961267,1.413561 4.820846,1.318524 2.85958,-0.095 5.423961,0.962504 6.831544,3.443051 1.407581,2.48054 4.114957,2.03083 2.356046,5.70861 -1.75891,3.67778 -2.8907,5.28882 -2.627894,6.33344 0.262805,1.04462 0.306668,-1.0035 -3.831823,-4.34231 -4.138488,-3.33882 -4.024283,-5.05737 -8.08192,-6.89935 -4.057637,-1.84199 -6.099593,-2.10206 -7.594325,-2.94576 -1.494734,-0.843704 1.848059,1.52984 -1.318786,-5.12104 -3.166843,-6.650884 -6.397012,-9.374146 -6.397012,-9.374146 z"
       id="path11144" />
    <path
       style="fill:#3e8f7e;fill-opacity:1;stroke:none;stroke-width:0.264583px;stroke-linecap:butt;stroke-linejoin:miter;stroke-opacity:1"
       d="m 47.111433,103.43049 c 0,0 1.732219,-9.287924 2.079964,-11.579122 0.347744,-2.291208 -2.507353,-9.776446 -2.507353,-9.776446 0,0 1.45502,-2.218075 1.279075,-5.20019 -0.175948,-2.982122 -0.68336,-3.842999 -1.740665,-7.635555 -1.057304,-3.792559 0.06992,-4.281366 -1.321225,-6.451064 -1.391143,-2.169708 -2.829587,-1.096494 -3.867137,-3.292842 -1.037553,-2.196338 -3.712491,-1.194154 -3.712491,-1.194154 l -8.013419,11.568624 9.180351,12.263571 c 0,0 0.571193,-0.446637 1.089967,2.203578 0.518774,2.650215 0.490408,2.021098 1.114369,5.38247 0.623964,3.361392 -0.264522,3.251012 1.670905,5.886057 1.935427,2.635045 3.097273,8.801443 3.097273,8.801443 z"
       id="path10946" />
    <path
       style="fill:#3e8e7b;fill-opacity:1;stroke:none;stroke-width:0.264583px;stroke-linecap:butt;stroke-linejoin:miter;stroke-opacity:1"
       d="m 20.276934,43.373373 c 0.49122,0.08797 1.239978,2.249702 1.239978,4.020648 0,1.770949 -0.96552,0.544153 -0.701598,5.20632 0.263922,4.662152 0.0029,1.317366 0.705617,8.755851 0.702688,7.438465 0.352272,8.579129 1.519161,11.695181 1.166892,3.116055 3.088626,7.657598 4.641686,10.88532 1.553059,3.227722 3.829902,5.730677 6.120587,8.124805 2.290683,2.394125 4.522248,3.255529 6.092725,5.596547 1.570479,2.341028 2.516251,2.176588 3.04175,4.224815 0.525497,2.04824 2.524207,2.524 2.524207,2.524 0,0 -0.109178,-2.71944 -2.624407,-6.963615 -2.515233,-4.244156 -4.746286,-3.553269 -4.978305,-7.804625 -0.232021,-4.251366 -3.695613,-10.275763 -3.695613,-11.936731 0,-1.660981 0.549799,-5.29882 0.703297,-5.964337 0.153498,-0.665507 -2.167088,-4.825623 -2.334363,-5.5731 -0.167277,-0.747464 -0.856742,-6.432231 -0.856742,-6.432231 0,0 -1.543719,-0.734587 -2.528906,-4.117579 -0.985189,-3.383011 1.752719,-1.457649 -1.245102,-4.979245 -2.997825,-3.521596 -7.623972,-7.262024 -7.623972,-7.262024 z"
       id="path10553" />
    <path
       style="fill:#439684;fill-opacity:1;stroke:none;stroke-width:0.264583px;stroke-linecap:butt;stroke-linejoin:miter;stroke-opacity:1"
       d="m 30.032532,35.593306 c 0,0 1.26882,5.508847 2.220343,7.952628 0.951527,2.443782 3.167708,4.514998 4.842928,5.849758 1.67522,1.334759 0.570736,0.410874 2.378464,3.149708 1.807729,2.738835 2.700348,2.148859 4.270206,4.841083 1.569857,2.692215 2.935978,4.179546 4.072744,7.762275 1.136767,3.582732 0.146418,8.207235 1.598364,9.502816 1.451943,1.295574 2.787565,8.548062 2.787565,8.548062 l 5.019186,-0.0281 c 0,0 -0.637667,-7.425128 -2.401398,-11.066007 C 53.057203,68.46466 51.193189,63.932037 51.105215,61.675149 51.017245,59.418221 44.868534,50.455748 40.143618,48.225014 35.418702,45.994283 37.383834,46.771663 35.968739,44.818667 34.553644,42.865672 31.759393,41.063031 31.583445,39.12507 31.407497,37.187105 30.032532,35.593306 30.032532,35.593306 Z"
       id="path10749" />
    <path
       style="fill:#f6ad80;fill-opacity:1;stroke:none;stroke-width:0.264583px;stroke-linecap:butt;stroke-linejoin:miter;stroke-opacity:1"
       d="m 43.540527,52.58504 c 0,0 1.585978,0.19594 2.252265,0.0122 0.66629,-0.183755 1.013005,-0.556569 1.429131,-1.251159 0.416124,-0.694592 0.731891,-0.827447 0.574726,-1.864606 -0.157166,-1.037158 0.331919,-1.376381 -0.327203,-1.951548 -0.659122,-0.57517 -2.114804,-0.619543 -3.007828,-0.598966 -0.893024,0.02058 -1.058156,1.096653 -1.400294,1.603764 -0.342138,0.507111 -1.105519,2.664285 -1.045803,3.128854 0.05971,0.464566 1.525006,0.921477 1.525006,0.921477 z"
       id="path4695" />
    <path
       style="fill:#fe7483;fill-opacity:1;stroke:none;stroke-width:0.264583px;stroke-linecap:butt;stroke-linejoin:miter;stroke-opacity:1"
       d="m 115.60214,56.291679 c 0,0 -0.53372,1.101054 0.41071,1.233014 0.94443,0.13196 1.51672,-1.038434 2.24582,-1.385074 0.7291,-0.346637 1.32847,-0.710884 0.62024,0.851597 -0.70824,1.562461 -2.11677,2.059358 -1.47461,3.692099 0.64216,1.632741 0.28225,1.404411 2.75072,2.136238 2.46847,0.731814 4.94202,-0.30245 5.02813,-1.453091 0.0861,-1.150644 -0.25576,-1.728781 -0.66597,-4.634656 -0.4102,-2.90587 -0.46015,-2.475065 -0.85604,-4.716747 -0.39588,-2.241682 -4.06074,-3.733898 -4.8005,-1.685004 -0.73976,2.048893 -0.79005,1.941726 -1.84667,2.998083 -1.05661,1.056354 -2.23026,1.730207 -2.34349,1.924497 -0.11323,0.19428 -0.50367,0.925254 -0.50367,0.925254 l 0.31572,0.667377 z"
       id="path2881" />
    <path
       style="fill:#fabeb8;fill-opacity:1;stroke:none;stroke-width:0.264583px;stroke-linecap:butt;stroke-linejoin:miter;stroke-opacity:1"
       d="m 119.58095,44.291607 c 0,0 0.31297,0.577469 -0.1529,0.825365 -0.46587,0.247896 -0.50391,0.350348 -0.20383,0.503896 0.30008,0.153551 0.56437,-0.715473 0.0336,0.452753 -0.5308,1.168228 -0.57978,1.308692 -0.0587,1.550622 0.52112,0.241927 0.12174,-0.461756 0.59924,0.27985 0.47749,0.741608 0.80227,1.428776 0.80227,1.428776 0,0 1.94418,0.100073 2.37522,-0.686176 0.43103,-0.786249 0.24215,-3.558381 0.24215,-3.558381 l -1.20773,-1.605005 z"
       id="path3148" />
    <path
       style="fill:#fd757f;fill-opacity:1;stroke:none;stroke-width:0.264583px;stroke-linecap:butt;stroke-linejoin:miter;stroke-opacity:1"
       d="m 46.684044,82.074922 13.376934,0.18519 6.221428,-4.063416 -9.097677,-13.098148 4.745829,-3.739926 5.389898,3.527749 c 0,0 7.378221,-1.975058 8.661114,1.387061 1.282891,3.362112 3.162938,3.998879 1.405398,6.978481 -1.757542,2.979602 -3.311609,4.654953 -1.94614,6.435144 1.36547,1.780191 0.395605,1.809898 4.751747,2.114208 4.356143,0.304307 13.055584,-0.28533 13.055584,-0.28533 l 0.23916,16.35589 c 0,0 -1.418074,2.624155 -3.451992,2.028898 -2.033908,-0.595257 -1.745318,-2.513888 -5.76484,-2.341728 -4.019544,0.17216 -8.521536,3.385915 -8.51231,7.088915 0.0092,3.703 0.751666,5.87718 4.4254,6.82484 3.673732,0.94766 5.767304,1.03935 7.325235,0.2572 1.557931,-0.78215 5.09102,-2.05078 5.749717,1.0013 0.658697,3.05209 0.0478,5.96782 -0.042,8.8246 -0.0898,2.85678 0.34156,7.9144 0.34156,7.9144 l -27.530309,-0.2925 c 0,0 -19.324836,-4.1172 -19.235761,-17.13113 0.08908,-13.013944 -0.107995,-29.971698 -0.107995,-29.971698 z"
       id="path9779" />
    <path
       style="fill:#189bd8;fill-opacity:1;stroke:none;stroke-width:0.264583px;stroke-linecap:butt;stroke-linejoin:miter;stroke-opacity:1"
       d="m 66.759286,87.138285 0.858832,0.10557 2.805057,2.699375 c 0,0 -0.200319,3.085952 -0.333653,3.662499 -0.133332,0.576544 -1.733288,1.117331 -2.528356,1.193751 -0.79507,0.0764 -1.796886,0.28968 -2.609606,0.33367 -0.812721,0.044 -2.214679,0.377407 -2.897384,0.0596 -0.682704,-0.31785 -1.675603,-0.623097 -0.885018,-2.649175 0.790583,-2.026081 1.43037,-3.003115 1.496349,-3.458062 0.06598,-0.454947 0.53146,-1.248104 0.53146,-1.248104 l 0.741754,-0.351717 1.170948,1.275664 1.008391,0.904684 0.432916,0.371087 z"
       id="path5738" />
    <path
       style="fill:#f2c4b5;fill-opacity:1;stroke:none;stroke-width:0.264583px;stroke-linecap:butt;stroke-linejoin:miter;stroke-opacity:1"
       d="m 63.129726,86.290378 c 0,0 1.696035,2.392938 2.436281,2.956125 0.740243,0.563187 0.984972,0.790584 0.984972,0.790584 l 0.179451,-3.796276 c 0,0 0.689721,0.199437 1.17361,-0.570497 0.483888,-0.769937 0.603337,-1.258314 0.603337,-1.753471 0,-0.495157 -0.07158,-1.691391 -0.469321,-2.937495 -0.397734,-1.246111 -0.965102,-1.501151 -2.665954,-1.262981 -1.700856,0.238167 -3.152482,1.362041 -3.506481,1.891708 -0.353999,0.529677 -0.977283,0.889477 -0.110797,1.930041 0.866487,1.040574 1.374902,2.752262 1.374902,2.752262 z"
       id="path5431" />
    <path
       style="fill:#fbc6bf;fill-opacity:1;stroke:none;stroke-width:0.264583px;stroke-linecap:butt;stroke-linejoin:miter;stroke-opacity:1"
       d="m 84.325018,13.368726 -0.214175,-3.5046327 2.312385,-0.7767687 1.361224,0.9431594 0.466627,1.012722 -0.23499,1.19245 -0.615487,1.169906 c 0,0 -0.0198,-0.02656 -0.0638,0.31492 -0.044,0.341487 -1.618191,0.692341 -2.050778,0.603951 -0.432577,-0.08839 -0.211837,-0.546626 -0.293687,-0.886669 -0.0819,-0.340042 -0.667309,-0.06904 -0.667309,-0.06904 z"
       id="path1112" />
    <path
       style="fill:#02053d;fill-opacity:1;stroke:none;stroke-width:0.264583px;stroke-linecap:butt;stroke-linejoin:miter;stroke-opacity:1"
       d="m 85.446624,13.709814 c 0,0 -1.677834,0.221134 -1.843247,-0.129765 -0.165414,-0.350898 0.521888,-0.870947 0.541928,-1.460701 0.02003,-0.589753 -0.11017,-1.09093 -0.378275,-1.766369 -0.268105,-0.6754387 -0.864558,-0.5590427 -0.390779,-0.8320347 0.473779,-0.2729917 0.975135,-0.4305037 1.750166,-0.8234484 0.775034,-0.3929437 1.673378,-0.6073507 2.226365,-0.155938 0.552997,0.4514137 0.40926,0.8530797 0.909827,1.2673164 0.500557,0.4142397 0.577927,0.9330557 0.729114,1.5135037 0.1512,0.580448 0.30542,0.741495 -0.0867,1.195028 -0.392097,0.453533 -0.509437,0.751811 -1.018014,0.911937 -0.508567,0.160125 -0.624304,-0.111694 -0.580317,-0.488731 0.044,-0.377036 -0.0386,-0.614865 0.30563,-0.921827 0.344237,-0.306959 0.431787,-0.925742 0.277837,-1.135213 -0.153957,-0.209468 -0.0109,-0.09951 -0.520617,0.0081 -0.509757,0.107563 -0.406917,-0.233979 -0.774434,-0.527439 -0.367517,-0.293463 -0.433217,-0.8705137 -1.130764,-0.6700147 -0.697547,0.200498 -0.22564,0.4415737 -0.795547,0.7054947 -0.569912,0.263922 -0.535579,-0.08797 -0.426161,0.703752 0.109419,0.791721 -0.26883,0.893332 0.435551,1.4433 0.704377,0.549971 0.768407,1.16309 0.768407,1.16309 z"
       id="path988" />
    <path
       style="fill:#119ddd;fill-opacity:1;stroke:none;stroke-width:0.264583px;stroke-linecap:butt;stroke-linejoin:miter;stroke-opacity:1"
       d="m 76.304243,17.915758 6.438339,-0.071 1.824141,4.628287 -6.356051,0.06199 z"
       id="path1235" />
    <ellipse
       style="opacity:0.721014;fill:none;stroke:none;stroke-width:0.370001;stroke-opacity:1"
       id="path1348"
       cx="80.087021"
       cy="20.136116"
       rx="0.76730734"
       ry="0.69341892" />
    <path
       style="fill:none;stroke:none;stroke-width:0.264583px;stroke-linecap:butt;stroke-linejoin:miter;stroke-opacity:1"
       d="m 78.210669,22.535033 8.670456,0.297659 -0.003,-0.384881 -8.23736,-0.365419 z"
       id="path1473" />
    <path
       style="fill:#f6ad80;fill-opacity:1;stroke:none;stroke-width:0.264583px;stroke-linecap:butt;stroke-linejoin:miter;stroke-opacity:1"
       d="m 39.996541,57.298933 c 0,0 -0.966956,2.531245 1.699332,3.996829 2.666288,1.465581 1.943968,1.777928 4.666128,1.403371 2.722158,-0.374567 1.846416,-0.591897 3.619743,-1.279594 1.773328,-0.687694 2.707916,-2.628995 2.707916,-2.921392 0,-0.2924 -3.86973,2.472465 -4.857306,2.108188 -0.987578,-0.364267 -1.323075,-0.422767 -2.193973,-0.671587 -0.870897,-0.248827 -1.893906,-2.548265 -1.893906,-2.548265 0,0 2.676319,1.929108 4.191445,0.800107 1.515123,-1.129004 1.831787,-1.180804 3.027103,-2.684045 1.195316,-1.503246 -0.380669,-5.54745 -0.380669,-5.54745 0,0 -1.839764,2.947106 -2.52289,3.927753 -0.683127,0.980646 -0.824505,1.577177 -1.986375,1.266347 -1.16187,-0.310823 -2.171983,-0.791215 -2.904847,-0.0254 -0.732864,0.765817 -3.171701,2.175118 -3.171701,2.175118 z"
       id="path4263"
       sodipodi:nodetypes="csssssscsscsssc" />
    <path
       style="fill:#17d5bb;fill-opacity:1;stroke:none;stroke-width:0.264583px;stroke-linecap:butt;stroke-linejoin:miter;stroke-opacity:1"
       d="m 49.415581,74.651584 0.96915,-30.141696 c 0,0 4.324956,-12.763722 13.16427,-14.528723 8.839313,-1.764998 33.297767,-1.586219 33.297767,-1.586219 l 0.48788,17.123838 c 0,0 4.187662,2.090605 5.897012,0.868918 1.70934,-1.221687 8.3681,-1.286986 10.18784,0.862724 1.81975,2.149711 2.17165,2.765161 1.81975,4.407083 -0.3519,1.641922 -1.80597,6.351431 -3.62459,7.303965 -1.81861,0.952524 -6.90571,-0.318617 -9.06517,-1.362061 -2.15947,-1.043444 -4.903005,-0.43167 -5.200372,3.014072 -0.29737,3.445759 -0.25505,15.013926 -0.25505,15.013926 l -16.57356,0.0271 c 0,0 -1.6032,-3.605732 0.138226,-5.898947 1.741427,-2.293228 1.764342,-9.119359 -1.405675,-11.417527 -3.170021,-2.298165 -8.755544,-0.204097 -9.876364,1.109814 -1.12082,1.313914 -2.056236,5.43852 -2.056236,5.43852 0,0 -2.813902,1.290911 -3.744577,3.726699 -0.890345,2.330235 0.09113,5.791117 0.497504,6.588981 0.83116,1.631871 -14.657805,-0.550477 -14.657805,-0.550477 z"
       id="path2469"
       sodipodi:nodetypes="ccsccssssssccssscsscc" />
    <path
       style="fill:#07155d;fill-opacity:1;stroke:none;stroke-width:0.264583px;stroke-linecap:butt;stroke-linejoin:miter;stroke-opacity:1"
       d="m 81.013622,34.784424 -1.708771,2.820538 c 0,0 0.1793,0.632388 0.836125,0.16909 0.656823,-0.463302 1.857463,-1.624531 2.229559,-1.363681 0.372095,0.260852 0.517219,0.234979 0.77478,0.428677 0.257561,0.193699 0.979728,0.208058 0.407321,-0.788048 -0.572411,-0.996106 -1.125734,-1.68765 -1.125734,-1.68765 z"
       id="path1726" />
    <path
       style="fill:#07155d;fill-opacity:1;stroke:none;stroke-width:0.264583px;stroke-linecap:butt;stroke-linejoin:miter;stroke-opacity:1"
       d="m 69.00986,34.139251 -3.540394,-0.02889 c 0,0 -0.574485,0.540134 0.122036,0.868871 0.696521,0.328737 1.432047,0.566999 1.994956,0.763899 0.562909,0.196898 0.61473,0.222772 0.588983,0.762583 -0.02574,0.539813 -0.472294,1.14078 -0.005,1.121701 0.46731,-0.01908 0.724056,-0.359466 1.138889,-0.904838 0.414832,-0.545373 0.92607,-1.880092 0.92607,-1.880092 z"
       id="path1854" />
    <path
       style="fill:#ffb44d;fill-opacity:1;stroke:none;stroke-width:0.264583px;stroke-linecap:butt;stroke-linejoin:miter;stroke-opacity:1"
       d="m 82.742579,17.844757 c 0,0 0.606732,-2.833698 1.082075,-3.133096 0.475345,-0.299397 1.102423,-0.378325 1.52272,-0.40078 0.420307,-0.02246 2.183628,-0.441449 3.060992,-0.265102 0.877367,0.17635 1.209794,0.734076 1.896111,1.772695 0.686327,1.038622 1.263971,2.759843 1.430861,3.45176 0.16689,0.691917 0.544067,1.757159 0.10938,2.218171 -0.434697,0.461013 -1.095844,0.410467 -2.352328,0.622388 -1.256471,0.21192 -2.170668,0.57912 -2.614265,0.337018 -0.443597,-0.242102 -0.461027,-1.143566 -0.439037,-1.312476 0.022,-0.16891 0.382097,-0.279625 1.523931,-0.29985 1.141844,-0.02021 1.535811,0.278429 1.580751,-0.456703 0.0449,-0.735134 0.0931,-1.63263 -0.10313,-0.983189 -0.196207,0.649441 0.34727,1.162691 -0.648124,1.267254 -0.995384,0.104566 -0.860827,0.419955 -1.171234,0.758097 -0.31041,0.338143 -1.409541,0.447424 -1.800801,0.425432 -0.391257,-0.02199 -1.396702,0.532392 -1.482583,-0.395356 -0.08588,-0.927749 0.255637,-1.383388 -0.05172,-2.054821 -0.30735,-0.671433 -1.543603,-1.551442 -1.543603,-1.551442 z"
       id="path2339" />
    <path
       style="fill:#fe6f7d;fill-opacity:1;stroke:none;stroke-width:0.264583px;stroke-linecap:butt;stroke-linejoin:miter;stroke-opacity:1"
       d="m 69.009863,34.139253 1.225553,0.703231 5.6433,-5.672658 4.571204,5.447291 c 0,0 1.838428,-0.0032 1.902333,-0.455141 0.06391,-0.451969 -4.808308,-7.508314 -4.808308,-7.508314 0,0 4.758984,1.193765 5.14848,1.249508 0.389496,0.05574 5.111127,0.03009 5.594194,-0.05789 0.483067,-0.08797 2.546855,-2.704496 0.482757,-5.047765 -12.37418,-0.88307 -12.37418,-0.88307 -12.37418,-0.88307 l -4.006879,6.301722 0.175948,0.529211 z"
       id="path1599" />
    <path
       style="fill:#2f96cd;fill-opacity:1;stroke:none;stroke-width:0.264583px;stroke-linecap:butt;stroke-linejoin:miter;stroke-opacity:1"
       d="m 110.90986,78.545073 c 0,0 -1.26576,-10.69875 -0.22744,-11.115497 1.03831,-0.416757 3.59012,-6.685281 6.72188,-6.746261 3.69459,1.272461 3.87219,1.439871 4.77726,1.311451 0.90507,-0.128427 3.94773,-1.749198 2.62249,0.693617 -1.32524,2.442815 -4.24919,5.577087 -4.72266,6.514974 -0.47346,0.937874 -1.10434,4.735573 -0.35494,6.151604 0.7494,1.416031 0.38114,2.361658 0.74689,2.731105 0.36575,0.369447 -3.79978,0.966174 -3.79978,0.966174 0,0 -0.96677,-7.357798 -0.79082,-8.871779 0.17595,-1.513991 0.94908,-2.263448 1.6521,-2.923195 0.70303,-0.659744 0.67983,-2.232145 -0.50718,-0.567997 -1.18702,1.664151 -2.588,2.012911 -2.84775,2.750005 -0.25975,0.737077 -0.27078,7.649458 0.1046,8.497762 0.37538,0.848297 -3.37465,0.608037 -3.37465,0.608037 z"
       id="path2749" />
    <path
       style="fill:#135677;fill-opacity:1;stroke:none;stroke-width:0.264583px;stroke-linecap:butt;stroke-linejoin:miter;stroke-opacity:1"
       d="m 120.18015,44.135804 c 0,0 -0.33792,1.901074 -0.49789,0.691275 -0.15996,-1.2098 -0.60225,-1.838288 0.5022,-2.149983 1.10445,-0.311693 1.17319,-1.395553 2.39038,-0.35568 1.21719,1.039874 2.31068,2.373837 3.9111,3.57758 1.60041,1.20374 2.96386,3.051365 4.08719,2.952331 1.12333,-0.09903 1.97269,4.494774 -0.32276,4.587957 -2.29546,0.09318 -4.65381,-1.655124 -6.01079,-2.367618 -1.35699,-0.712497 -1.76062,-1.932527 -2.19028,-2.015863 -0.42967,-0.08334 -0.51764,-0.429776 -0.6496,-1.07455 -0.13196,-0.644776 0.38944,-1.241002 0.38944,-1.481704 0,-0.240699 -0.44129,-0.313647 -0.44129,-0.313647 0,0 0.0496,-1.075375 -0.24337,-1.594969 -0.29293,-0.519594 -0.92433,-0.455129 -0.92433,-0.455129 z"
       id="path3014" />
    <path
       style="color:#000000;fill:#000000;-inkscape-stroke:none;stroke:none"
       d="m 18.787109,91.591797 -0.167968,0.445312 17.826171,6.734375 -20.076171,8.054686 19.597656,7.66992 -20.283203,7.94727 15,5.24219 0.15625,-0.44922 -13.785157,-4.81836 20.21875,-7.92188 -19.611328,-7.67578 20.09375,-8.062498 z"
       id="path3320" />
    <path
       style="color:#000000;fill:#000000;-inkscape-stroke:none;stroke:none"
       d="m 33.699219,91.804687 -17.462891,7.021485 19.923828,8.156248 -20.857422,6.78321 21.115235,8.36132 -12.072266,5.20703 0.21875,0.50977 13.308594,-5.73828 -20.929688,-8.28711 20.830078,-6.77734 -20.058593,-8.208989 16.191406,-6.513672 z"
       id="path3825" />
    <ellipse
       style="opacity:0.721014;fill:#032261;fill-opacity:1;stroke:none;stroke-width:0.309958;stroke-opacity:1"
       id="path3709"
       cx="21.09029"
       cy="132.82356"
       rx="2.6188006"
       ry="2.6284359" />
    <ellipse
       style="opacity:0.721014;fill:#032261;fill-opacity:1;stroke:none;stroke-width:0.309958;stroke-opacity:1"
       id="path3709-3"
       cx="35.019257"
       cy="132.71178"
       rx="2.6188006"
       ry="2.6284359" />
    <rect
       style="opacity:0.721014;fill:#06105d;fill-opacity:1;stroke:none;stroke-width:0.370001;stroke-opacity:1"
       id="rect3582"
       width="23.26918"
       height="4.3119464"
       x="15.680234"
       y="127.23788"
       ry="0.28963935" />
    <path
       style="fill:#e7c279;fill-opacity:1;stroke:none;stroke-width:0.264583px;stroke-linecap:butt;stroke-linejoin:miter;stroke-opacity:1"
       d="m 20.863608,86.645258 c 0,0 -1.360088,2.125898 -0.969174,2.544245 0.390914,0.418347 0.145772,0.283397 2.2317,0.538547 2.085927,0.255147 3.67031,0.11864 3.67031,0.11864 0,0 0.154504,-1.051784 -0.522248,-1.341394 -0.676754,-0.289597 -1.668859,-0.814384 -2.445271,-1.456601 -0.776414,-0.642207 -1.965317,-0.403437 -1.965317,-0.403437 z"
       id="path4988" />
    <path
       style="fill:#143664;fill-opacity:1;stroke:none;stroke-width:0.264583px;stroke-linecap:butt;stroke-linejoin:miter;stroke-opacity:1"
       d="m 29.318945,63.519757 c 0,0 8.090366,-0.993184 9.390978,2.225128 1.300612,3.218332 3.471466,7.677288 3.296618,9.036009 -0.174847,1.358724 0.216279,2.404168 -2.115783,5.825357 -2.332061,3.421202 -4.361169,7.139171 -4.361169,7.139171 l -3.264053,0.265937 c 0,0 2.589617,-8.518652 3.381383,-10.37668 0.791765,-1.858031 -0.858883,-5.4975 -2.070619,-7.581768 -1.211736,-2.084268 -1.141423,1.374031 -1.751057,3.261332 -0.609632,1.887308 -1.450015,4.383696 -3.367136,6.734771 -1.917123,2.351078 -4.421123,5.856997 -4.909769,6.863951 -0.488646,1.006954 -4.292767,0.809057 -4.292767,0.809057 0,0 1.959896,-3.598209 3.619333,-7.981255 1.659441,-4.383056 4.296297,-13.437885 5.236922,-14.642429 0.940628,-1.204541 1.207119,-1.578581 1.207119,-1.578581 z"
       id="path3980" />
    <path
       style="fill:#fbb745;fill-opacity:1;stroke:none;stroke-width:0.264583px;stroke-linecap:butt;stroke-linejoin:miter;stroke-opacity:1"
       d="m 29.318945,63.519757 c 0,0 5.977118,-10.826087 8.634304,-12.016352 2.657184,-1.190265 4.233148,-1.41496 4.233148,-1.41496 0,0 0.751988,0.576813 1.103884,1.774367 0.351896,1.197555 -0.543335,0.575789 -0.104571,2.085581 0.438764,1.509792 -1.007271,3.50683 -1.640845,4.370854 -0.633574,0.864017 -2.207226,4.261936 -2.562821,6.060287 -0.355594,1.798338 -0.883438,4.209136 -0.883438,4.209136 z"
       id="path4121" />
    <path
       style="fill:none;stroke:none;stroke-width:0.264583px;stroke-linecap:butt;stroke-linejoin:miter;stroke-opacity:1"
       d="m 43.540529,52.585043 c 0,0 1.706259,1.646647 1.862082,2.043784 0.155821,0.397138 -1.658138,2.757656 -1.658138,2.757656 l -2.462477,-2.102248 z"
       id="path4406" />
    <path
       style="fill:#183461;fill-opacity:1;stroke:none;stroke-width:0.264583px;stroke-linecap:butt;stroke-linejoin:miter;stroke-opacity:1"
       d="m 42.186397,50.088442 c 0,0 -0.07702,-2.717874 0.711729,-3.586845 0.788747,-0.868968 -0.564705,-1.04245 1.785014,-1.04245 2.349717,0 3.625287,-0.197734 4.167672,0.03479 0.542385,0.232521 0.870156,1.241055 0.270587,1.778418 -0.59957,0.537361 -0.910603,1.511266 -0.910603,1.511266 0,0 -1.646833,-0.668909 -2.13259,-0.388978 -0.485754,0.27993 -0.414112,-0.0089 -0.53984,0.731677 -0.125727,0.740571 -0.46823,1.840354 -0.561541,0.914156 -0.09331,-0.926198 0.270698,-1.996755 -0.372734,-1.86786 -0.643435,0.128897 -1.631789,0.139133 -1.345835,0.949936 0.285954,0.8108 -1.071859,0.96589 -1.071859,0.96589 z"
       id="path4550" />
    <path
       style="fill:#e7c279;fill-opacity:1;stroke:none;stroke-width:0.264583px;stroke-linecap:butt;stroke-linejoin:miter;stroke-opacity:1"
       d="m 32.265536,88.011359 0.367215,1.364394 5.225584,0.262867 c 0,0 0.546783,-0.751344 -0.419997,-1.194224 -0.966779,-0.442867 -2.243285,-1.542101 -2.243285,-1.542101 z"
       id="path4841" />
    <path
       style="fill:#1edbbb;fill-opacity:1;stroke:none;stroke-width:0.264583px;stroke-linecap:butt;stroke-linejoin:miter;stroke-opacity:1"
       d="m 62.060108,97.092838 2.136535,-0.753327 c 0,0 0.150457,-1.120321 -0.19221,-1.608541 -0.342667,-0.488217 -1.253558,-0.242367 -1.584169,-0.366787 -0.33061,-0.12441 -0.66009,0.2561 0.08639,-1.312451 0.746482,-1.568541 1.263944,-1.476214 0.977128,-3.345292 -0.286817,-1.869071 0.691861,-2.307838 -1.065218,-2.619385 -1.75708,-0.31154 -5.089382,1.836198 -6.512219,4.160416 -1.422836,2.324218 -2.521249,2.839975 -1.548519,4.817403 0.97273,1.977438 1.364549,2.232258 2.285429,2.512185 0.920879,0.27993 1.285179,0.590807 2.571231,0.559697 1.28605,-0.0311 2.84562,-2.043918 2.84562,-2.043918 z"
       id="path5138" />
    <path
       style="fill:#011065;fill-opacity:1;stroke:none;stroke-width:0.264583px;stroke-linecap:butt;stroke-linejoin:miter;stroke-opacity:1"
       d="m 61.962763,99.298836 c 0,0 0.878652,-1.599911 0.05065,-1.966368 -0.827998,-0.36646 -1.674731,1.112211 -2.781017,1.156761 -1.106284,0.0445 -3.914029,-0.232357 -3.327839,-1.190131 0.586189,-0.957767 -0.07101,-1.675761 1.160081,-2.940045 1.231096,-1.264281 0.770803,-1.824788 1.855851,-2.773185 1.085051,-0.948394 2.33372,-3.379279 2.634811,-3.534219 0.301088,-0.15494 1.641668,-0.21428 1.641668,-0.21428 0,0 0.565901,0.0274 0.780275,-0.823114 0.214376,-0.850564 0.05814,-1.568791 -0.366919,-2.465965 -0.425056,-0.897167 -2.138524,-0.991884 -1.006089,-2.114448 1.132435,-1.122564 0.712216,0.843414 1.161039,0.843414 0.448824,0 0.498965,-1.011884 1.338369,-1.540641 0.839406,-0.528757 0.99029,-0.739257 1.456047,-0.801464 0.465759,-0.0622 0.429384,-0.16661 1.014365,0.597094 0.58498,0.763697 0.142748,1.636331 0.677076,1.667431 0.534329,0.0311 1.135118,-2.023558 1.104017,-2.777545 -0.0311,-0.753974 0.402825,-1.830248 -0.752306,-2.359595 -1.155134,-0.529337 -3.057284,-1.614071 -4.583269,-0.470037 -1.525984,1.144024 -3.471531,4.035376 -3.981857,5.3279 -0.510326,1.292511 -0.302212,3.236142 -2.204252,3.870486 -1.902042,0.634347 -2.999684,0.858067 -3.210134,1.867971 -0.210449,1.009894 0.07487,2.165038 -0.560011,2.980562 -0.634879,0.815537 -1.459143,0.826937 -1.534814,2.217598 -0.07567,1.390661 -0.979001,2.519385 -0.0181,4.306716 0.960897,1.787331 3.526157,1.197314 4.84596,1.259514 1.319802,0.0622 4.606398,-0.12441 4.606398,-0.12441 z"
       id="path5136" />
    <path
       style="fill:#f6c6c0;fill-opacity:1;stroke:none;stroke-width:0.264583px;stroke-linecap:butt;stroke-linejoin:miter;stroke-opacity:1"
       d="m 72.903987,95.707117 c 0,0 1.222341,-2.624765 1.188292,-2.817815 -0.03405,-0.19304 0.269838,-0.778997 -0.929749,-0.335687 -1.199586,0.443307 -1.820069,0.790234 -1.646256,1.380271 0.173813,0.590037 1.387713,1.773231 1.387713,1.773231 z"
       id="path5893" />
    <path
       style="fill:#011260;fill-opacity:1;stroke:none;stroke-width:0.264583px;stroke-linecap:butt;stroke-linejoin:miter;stroke-opacity:1"
       d="m 68.039387,91.340041 5.836762,0.256107 -3.562369,8.315985 -5.6573,-0.448327 z"
       id="path5208" />
    <path
       style="fill:#f6c6c0;fill-opacity:1;stroke:none;stroke-width:0.264583px;stroke-linecap:butt;stroke-linejoin:miter;stroke-opacity:1"
       d="m 64.196643,96.339511 c 0,0 0.587893,-0.875324 1.734579,-0.840264 1.146683,0.0351 1.42267,0.321667 1.727885,-0.0344 0.305218,-0.356037 0.06813,-0.964904 -0.129807,-1.254744 -0.197938,-0.289837 -0.375248,-0.255757 -1.345735,-0.240017 -0.970489,0.0157 -1.581107,0.452057 -2.005375,0.548377 -0.424269,0.0963 0.01844,1.821018 0.01844,1.821018 z"
       id="path5359" />
    <path
       style="fill:none;stroke:none;stroke-width:0.264583px;stroke-linecap:butt;stroke-linejoin:miter;stroke-opacity:1"
       d="m 67.61812,87.243895 c 0,0 1.145035,1.185381 1.64473,2.445775 0.499694,1.260394 0.47865,2.289508 0.47865,2.289508 0,0 0.596955,0.158987 1.673486,0.0459 1.076534,-0.11305 1.430854,-0.37691 0.604534,-1.568551 -0.826323,-1.191644 -1.220536,-1.562104 -1.846945,-2.486928 -0.626407,-0.924834 -2.554455,-0.725744 -2.554455,-0.725744 z"
       id="path5584" />
    <path
       style="fill:#030f5a;fill-opacity:1;stroke:none;stroke-width:0.264583px;stroke-linecap:butt;stroke-linejoin:miter;stroke-opacity:1"
       d="m 60.191108,133.58791 -0.171162,3.63326 1.065115,0.0364 0.315063,-1.02753 c 0,0 2.448343,-0.0378 3.704402,0.33796 1.256056,0.37578 1.431234,0.6002 1.989547,0.58534 0.558314,-0.0149 1.017302,-0.43228 0.443304,-0.86132 -0.573995,-0.42904 -0.04721,-0.56819 -1.17952,-0.74414 -1.132311,-0.17595 -1.658575,0.56251 -2.342007,-0.23241 -0.683432,-0.79492 -1.644179,-1.83796 -1.644179,-1.83796 z"
       id="path6093" />
    <path
       style="fill:#030f5a;fill-opacity:1;stroke:none;stroke-width:0.264583px;stroke-linecap:butt;stroke-linejoin:miter;stroke-opacity:1"
       d="m 72.841567,134.06358 c 0,0 -0.382905,0.38106 -0.382905,1.06248 0,0.68142 0.09691,1.69917 0.09691,1.91774 0,0.21856 -0.06362,0.3486 0.495533,0.42543 0.559152,0.0768 0.807712,-0.1159 0.807712,-0.1159 l 0.05739,-0.95028 c 0,0 1.148382,0.11078 1.731719,0.25405 0.583338,0.14326 0.202409,0.10979 1.257546,0.30396 1.055137,0.19417 1.197817,0.37643 1.896084,0.37643 0.698267,0 2.386446,-0.29308 1.026493,-0.9376 -1.359953,-0.64452 -0.648385,-0.85842 -1.64469,-0.74927 -0.996304,0.10915 -1.443974,0.0274 -1.908736,-0.26009 -0.464761,-0.28745 -1.507677,-1.20675 -1.507677,-1.20675 z"
       id="path6138" />
    <path
       style="fill:#fcaa82;fill-opacity:1;stroke:none;stroke-width:0.264583px;stroke-linecap:butt;stroke-linejoin:miter;stroke-opacity:1"
       d="m 65.725879,98.837499 -3.763116,0.461337 c 0,0 -1.995689,3.786744 -2.039676,5.875714 -0.04399,2.08896 -0.506928,4.12038 -0.418954,6.08491 0.08797,1.96453 0.571825,7.90586 0.329941,10.59648 -0.241885,2.69061 -0.06594,5.24904 -0.197898,6.85482 -0.131961,1.60577 -0.02291,5.38748 0.0471,5.57664 0.07002,0.18917 3.649143,0.23316 3.649143,0.23316 0,0 0.696632,-8.513 1.137423,-10.86193 0.440791,-2.34894 0.528389,-2.69773 0.899943,-5.67154 0.371555,-2.97381 0.502203,-4.96806 0.697593,-5.63783 0.195386,-0.66976 0.228637,-1.30912 1.130252,1.31287 0.901618,2.622 1.262406,6.82879 1.843773,8.58104 0.581366,1.75224 0.662096,2.24415 1.285793,5.07303 0.623697,2.82889 2.010732,6.88188 2.266547,7.30959 0.255813,0.42771 3.081706,0.29598 3.081706,0.29598 0,0 -0.679506,-5.53571 -1.121934,-8.77976 -0.442428,-3.24405 0.0061,-2.39788 -0.829323,-7.17893 -0.835449,-4.78105 -2.593192,-14.02454 -3.001804,-16.53775 -0.408615,-2.513197 -4.996513,-3.587831 -4.996513,-3.587831 z"
       id="path6049" />
    <path
       style="fill:#3e8e7b;fill-opacity:1;stroke:none;stroke-width:0.264583px;stroke-linecap:butt;stroke-linejoin:miter;stroke-opacity:1"
       d="m 157.09051,100.56416 c 0,0 1.05894,-11.398037 1.23489,-14.873566 0.17595,-3.475532 -1.32636,-6.147767 -1.06244,-8.441195 0.26392,-2.293425 -0.0892,-3.711216 0.57633,-4.87329 0.66555,-1.162084 0.0883,-1.909881 2.81231,-7.521408 2.72401,-5.611527 0.30424,-10.375821 2.72401,-8.295742 2.41976,2.080078 1.64574,1.210991 1.99544,4.065996 0.34969,2.854995 0.8478,1.436071 0.78986,5.535287 -0.058,4.099219 -0.7129,3.665222 0.0804,7.454448 0.79334,3.789229 2.39953,2.817575 0.64001,6.363814 -1.75952,3.546252 -0.17137,6.921421 -1.60658,9.661456 -1.43522,2.740025 -1.8937,3.438952 -2.74313,6.129474 -0.84943,2.690535 1.2324,8.618076 -1.52937,8.002376 -2.76177,-0.6157 -3.91177,-3.20765 -3.91177,-3.20765 z"
       id="path10164" />
    <path
       style="fill:#9ad7cb;fill-opacity:1;stroke:none;stroke-width:0.264583px;stroke-linecap:butt;stroke-linejoin:miter;stroke-opacity:1"
       d="m 185.3673,111.84392 c 0,0 7.25284,-9.9181 3.0744,-11.37187 -4.17844,-1.453764 -11.87948,-2.053471 -11.87948,-2.053471 l -2.80991,6.668031 z"
       id="path8837" />
    <path
       style="fill:#9ad8cb;fill-opacity:1;stroke:none;stroke-width:0.264583px;stroke-linecap:butt;stroke-linejoin:miter;stroke-opacity:1"
       d="m 143.36604,116.75979 10.58733,-16.20409 c 0,0 28.23304,14.22814 38.00828,7.68315 9.77524,-6.54499 12.52361,-0.98796 7.96232,5.48735 -4.56129,6.4753 -9.37148,16.11887 -9.37148,16.11887 l -54.21196,-2.15178 z"
       id="path7176" />
    <path
       style="fill:#3e8e7b;fill-opacity:1;stroke:none;stroke-width:0.264583px;stroke-linecap:butt;stroke-linejoin:miter;stroke-opacity:1"
       d="m 161.00228,103.77181 3.12971,9.76495 c 0,0 1.56564,-2.66071 4.16073,-4.21232 2.59508,-1.55161 9.21418,-6.90682 12.0438,-7.79209 2.82962,-0.88526 4.00173,0.69013 4.96945,-3.778235 0.96771,-4.468356 5.58724,-11.806454 5.58724,-11.806454 0,0 -1.8017,-0.497067 -6.18482,2.621525 -4.38312,3.118592 -7.10358,5.15011 -7.62488,7.499748 -0.52129,2.349645 -1.63938,1.498861 -4.03702,2.545125 -2.39765,1.046264 -4.12318,0.22242 -6.41405,1.948101 -2.29088,1.72569 -5.63016,3.20965 -5.63016,3.20965 z"
       id="path10358" />
    <path
       style="fill:#fec3b4;fill-opacity:1;stroke:none;stroke-width:0.264583px;stroke-linecap:butt;stroke-linejoin:miter;stroke-opacity:1"
       d="m 155.02373,105.76819 3.77942,0.43931 2.19913,-2.43569 -6.00621,-1.35749 z"
       id="path27404" />
    <path
       style="fill:#159cd4;fill-opacity:1;stroke:none;stroke-width:0.264583px;stroke-linecap:butt;stroke-linejoin:miter;stroke-opacity:1"
       d="m 109.64066,82.183022 0.23099,16.245607 c 0,0 -1.06444,3.250861 -4.58502,1.510624 -3.52058,-1.740221 -7.620575,-4.778753 -11.104267,-1.119714 -3.483689,3.659041 -3.325849,5.327471 -2.114108,8.696211 1.211744,3.36875 2.596148,5.19846 7.908238,4.71581 5.312117,-0.48265 4.068497,-3.91711 7.120967,-1.45811 3.05247,2.45901 3.22758,1.15238 2.60707,5.10255 -0.62052,3.95016 -0.54462,13.40033 -0.54462,13.40033 l 31.18643,-0.16681 c 0,0 14.57233,-4.48816 16.24106,-16.78418 1.66873,-12.29603 0.0783,-29.668761 0.0783,-29.668761 l -17.83251,-0.0206 c 0,0 -2.22306,4.055659 -0.77503,5.21857 1.44802,1.162924 1.69688,9.663136 -1.49531,10.98623 -3.19219,1.323091 -12.39604,1.649941 -12.37959,-6.409154 0.0165,-8.059095 7.4652,-8.940159 0.47666,-9.768036 -6.98854,-0.827874 -15.01927,-0.480557 -15.01927,-0.480557 z"
       id="path6231" />
    <path
       style="fill:#125d7f;fill-opacity:1;stroke:none;stroke-width:0.264583px;stroke-linecap:butt;stroke-linejoin:miter;stroke-opacity:1"
       d="m 111.35542,80.070734 c 0,0 -4.84365,1.238454 -3.87476,1.669181 0.96889,0.430737 0.75558,0.622637 2.16,0.443107 1.40442,-0.179537 3.17826,-0.273667 3.76485,-0.301517 0.5866,-0.0279 0.73993,-0.599147 0.64662,-1.109504 -0.0933,-0.510347 0.10737,-0.455137 -0.6437,-0.31021 -0.75106,0.14493 -2.05301,-0.391057 -2.05301,-0.391057 z"
       id="path6279" />
    <path
       style="fill:#125d7f;fill-opacity:1;stroke:none;stroke-width:0.264583px;stroke-linecap:butt;stroke-linejoin:miter;stroke-opacity:1"
       d="m 117.61984,79.885707 c 0,0 -3.06486,1.166231 -3.24718,1.748278 -0.18233,0.582047 -0.51972,1.035284 0.90475,0.723907 1.42447,-0.31139 1.461,-0.3001 2.65495,-0.624077 1.19396,-0.323987 1.72453,-0.965424 2.04246,-0.965424 0.31792,0 0.0945,-0.917834 0.0945,-0.917834 0,0 -0.50153,0.538687 -1.27592,0.444717 -0.77438,-0.094 -1.17356,-0.409567 -1.17356,-0.409567 z"
       id="path6441" />
    <path
       style="fill:#fec3b4;fill-opacity:1;stroke:none;stroke-width:0.264583px;stroke-linecap:butt;stroke-linejoin:miter;stroke-opacity:1"
       d="m 151.71135,41.466074 c 0,0 -0.34159,1.129773 -0.55312,1.746705 -0.21152,0.616931 -0.17285,0.885753 0.15417,1.583896 0.32702,0.698143 0.15829,1.468094 1.08856,1.735688 0.93026,0.267594 2.7186,1.132956 3.16055,0.412091 0.44195,-0.720865 0.0944,-1.837515 -0.19385,-3.178307 -0.28821,-1.340795 -3.65631,-2.300073 -3.65631,-2.300073 z"
       id="path7266" />
    <path
       style="fill:#17d5bb;fill-opacity:1;stroke:none;stroke-width:0.264583px;stroke-linecap:butt;stroke-linejoin:miter;stroke-opacity:1"
       d="m 142.49196,41.705553 c 0,0 1.39853,-1.059232 2.23937,-0.802457 0.84085,0.256776 -0.29439,0.708112 1.41268,1.83647 1.70707,1.128358 1.924,1.560298 4.08476,2.200879 2.16075,0.640582 2.41291,1.621361 4.46636,0.713493 2.05345,-0.90787 2.87374,-2.445379 3.2223,-3.958338 0.34855,-1.512959 1.02717,-2.073947 1.02717,-2.073947 l 1.0626,-0.08329 c 0,0 -0.25546,0.817944 -0.43754,3.016618 -0.18209,2.198677 -0.036,2.751645 -0.88202,4.16655 -0.84601,1.414901 -2.15852,1.261655 -1.49624,3.012868 0.66228,1.751211 2.13031,6.088013 2.17077,7.201757 0.0405,1.113744 0.95123,1.949208 -1.23067,2.507975 -2.18189,0.558757 -3.96295,0.33587 -5.07536,-0.0278 -1.11241,-0.363657 -2.46212,-0.11077 -2.41813,-3.032262 0.044,-2.921513 0.62357,-3.197254 0.044,-5.263946 -0.57958,-2.066692 -0.11569,-1.760072 -2.45663,-3.478752 -2.34094,-1.718683 -4.11804,-3.274925 -4.43571,-4.095705 -0.31766,-0.82078 -1.29769,-1.840122 -1.29769,-1.840122 z"
       id="path6933" />
    <path
       style="fill:#0d5473;fill-opacity:1;stroke:none;stroke-width:0.264583px;stroke-linecap:butt;stroke-linejoin:miter;stroke-opacity:1"
       d="m 150.95491,42.261096 c 0,0 -0.37996,-1.592286 0.25913,-1.715915 0.6391,-0.123629 0.85468,-0.435679 2.38811,-0.282125 1.53343,0.153553 1.93852,0.499279 2.29014,1.349417 0.35162,0.850141 0.50301,1.374309 0.43758,1.930469 -0.0654,0.556157 -0.41978,1.465855 -0.87022,1.82472 -0.45043,0.358865 -0.94664,0.863005 -1.12151,0.331488 -0.17486,-0.531518 0.10708,-0.873976 -0.0221,-1.503677 -0.1292,-0.629703 -0.39945,-0.457755 -0.60747,-0.167841 -0.20803,0.289915 -0.51008,1.169662 -0.59343,0.417581 -0.0833,-0.75208 0.569,-1.172144 -0.17133,-1.584348 -0.74033,-0.412205 -1.31067,-0.76463 -1.98888,-0.599769 z"
       id="path7099" />
    <path
       style="fill:#0f5878;fill-opacity:1;stroke:none;stroke-width:0.264583px;stroke-linecap:butt;stroke-linejoin:miter;stroke-opacity:1"
       d="m 152.89089,57.420893 c 0,0 -1.16168,1.484361 -1.6546,3.758709 -0.49292,2.274348 -2.08704,6.212094 -2.08704,8.492372 0,2.280288 -1.09367,4.512883 -0.8303,6.177904 0.26337,1.665021 0.37819,2.748635 0.37819,2.748635 0,0 1.68873,0.653647 2.58024,0.616857 0.89151,-0.0368 0.29929,-1.278034 1.42592,-5.65251 1.12663,-4.374473 1.19245,-7.241478 1.92913,-8.363822 0.73668,-1.122354 1.35366,-2.297065 1.35366,-2.297065 0,0 0.01,-0.632617 1.16042,2.889002 1.1506,3.521609 -0.0866,0.0453 1.58965,5.902077 1.67624,5.856737 2.64451,8.124395 2.64451,8.124395 0,0 1.62959,0.528537 2.47007,0.484547 0.84048,-0.044 0.39986,-0.23925 -1.04918,-5.62331 -1.44903,-5.384067 -1.48681,-5.550917 -1.89048,-8.554569 -0.40367,-3.003645 -0.81489,-4.565546 -1.1676,-5.48679 -0.35271,-0.921234 -1.32633,-2.686725 -1.32633,-2.885655 0,-0.198937 -5.52626,-0.330777 -5.52626,-0.330777 z"
       id="path7434" />
    <path
       style="fill:#0f5878;fill-opacity:1;stroke:none;stroke-width:0.264583px;stroke-linecap:butt;stroke-linejoin:miter;stroke-opacity:1"
       d="m 149.77196,80.362934 -3.47828,1.613471 c 0,0 -0.93193,0.457867 0.9228,0.634744 1.85473,0.17688 2.63697,-0.188527 3.63412,-0.277317 0.99716,-0.0888 0.60436,-1.286254 0.60436,-1.286254 0,0 0.67552,-0.169817 -0.25624,-0.183787 -0.93175,-0.014 -1.42676,-0.500857 -1.42676,-0.500857 z"
       id="path7603" />
    <path
       style="fill:#0f5878;fill-opacity:1;stroke:none;stroke-width:0.264583px;stroke-linecap:butt;stroke-linejoin:miter;stroke-opacity:1"
       d="m 162.68573,80.461411 c 0,0 -1.22697,1.146054 -1.95929,1.962921 -0.73233,0.816864 -2.91897,1.608191 -0.17832,1.124344 2.74064,-0.483857 2.64225,-0.669597 3.37314,-0.973287 0.73089,-0.303687 0.55494,-1.467621 0.55494,-1.467621 0,0 0.37755,-0.0234 -0.25531,-0.0234 -0.63286,0 -1.53516,-0.623007 -1.53516,-0.623007 z"
       id="path7605" />
    <path
       style="fill:#f47984;fill-opacity:1;stroke:none;stroke-width:0.264583px;stroke-linecap:butt;stroke-linejoin:miter;stroke-opacity:1"
       d="m 187.94949,130.6893 c 0,0 -1.98585,3.28301 -2.0938,3.54891 -0.10794,0.26589 -0.94783,0.78694 -0.0216,1.18408 0.92624,0.39714 -0.12276,-0.3319 2.12811,-1.21598 2.25086,-0.88409 2.82523,-1.46665 3.17681,-1.83047 0.35157,-0.36381 -0.58652,-2.53077 -0.58652,-2.53077 z"
       id="path8357" />
    <path
       style="color:#000000;fill:#000000;-inkscape-stroke:none;opacity:0.721014;stroke:none"
       d="m 156.95508,82.472656 c -0.25975,0 -0.47461,0.214859 -0.47461,0.47461 v 0.804687 c 0,0.25975 0.21486,0.474609 0.47461,0.474609 h 18.85156 c 0.25975,0 0.47461,-0.214859 0.47461,-0.474609 v -0.804687 c 0,-0.259751 -0.21486,-0.47461 -0.47461,-0.47461 z m 0,0.369141 h 18.85156 c 0.0612,0 0.10547,0.0443 0.10547,0.105469 v 0.804687 c 0,0.06117 -0.0443,0.105469 -0.10547,0.105469 h -18.85156 c -0.0612,0 -0.10352,-0.0443 -0.10352,-0.105469 v -0.804687 c 0,-0.06117 0.0423,-0.105469 0.10352,-0.105469 z"
       id="rect8522" />
    <path
       style="color:#000000;fill:#000000;-inkscape-stroke:none;stroke:none"
       d="m 160.33203,83.414062 -8.71484,51.726558 0.25976,0.0449 8.71485,-51.728519 z"
       id="path8699" />
    <path
       style="color:#000000;fill:#000000;-inkscape-stroke:none;stroke:none"
       d="m 168.5957,83.546875 -7.51367,52.171875 0.26367,0.0371 7.51172,-52.169923 z"
       id="path8701" />
    <path
       style="color:#000000;fill:#000000;-inkscape-stroke:none;stroke:none"
       d="m 161.82422,131.98633 -9.54102,0.002 v 0.26367 l 9.54102,-0.002 z"
       id="path8880" />
    <g
       id="path8880-6"
       style="stroke:none">
      <path
         style="color:#000000;fill:#5f7c87;stroke-width:0.264583px;-inkscape-stroke:none;stroke:none"
         d="m 154.03827,121.55029 9.54193,-0.002"
         id="path3534" />
      <path
         style="color:#000000;fill:#000000;-inkscape-stroke:none;stroke:none"
         d="m 163.58008,121.41602 -9.54102,0.002 v 0.26367 l 9.54102,-0.002 z"
         id="path3536" />
    </g>
    <path
       style="color:#000000;fill:#000000;-inkscape-stroke:none;stroke:none"
       d="m 164.78906,110.91016 -9.54101,0.002 v 0.26367 l 9.54101,-0.002 z"
       id="path8880-7" />
    <path
       style="color:#000000;fill:#000000;-inkscape-stroke:none;stroke:none"
       d="m 166.63281,100.42969 -9.54297,0.002 v 0.26563 l 9.54297,-0.002 z"
       id="path8880-5" />
    <path
       style="fill:none;stroke:none;stroke-width:0.264583px;stroke-linecap:butt;stroke-linejoin:miter;stroke-opacity:1"
       d="m 171.0832,127.57484 9.54193,-0.002"
       id="path8880-27" />
    <path
       style="fill:none;stroke:none;stroke-width:0.264583px;stroke-linecap:butt;stroke-linejoin:miter;stroke-opacity:1"
       d="m 165.12184,83.524756 8.20308,52.648644"
       id="path26819" />
    <path
       style="fill:#f47984;fill-opacity:1;stroke:none;stroke-width:0.264583px;stroke-linecap:butt;stroke-linejoin:miter;stroke-opacity:1"
       d="m 171.12467,133.07935 c 0,0 -1.51416,0.95529 -2.52196,1.43845 -1.0078,0.48317 -2.17751,0.74761 -2.04744,1.37984 0.13007,0.63223 -1.02759,0.79117 2.02199,0.65664 3.04958,-0.13452 4.74766,-0.38088 4.74766,-0.38088 0,0 0.15122,-2.50993 0.15122,-3.01117 0,-0.50124 -2.35147,-0.0829 -2.35147,-0.0829 z"
       id="path8295" />
    <path
       style="color:#000000;fill:#000000;-inkscape-stroke:none;stroke:none"
       d="m 167.80273,91.371094 -9.54101,0.002 v 0.263672 l 9.54101,-0.002 z"
       id="path8880-3" />
    <path
       style="color:#000000;fill:#000000;-inkscape-stroke:none;stroke:none"
       d="m 174.81641,89.505859 -9.54102,0.002 v 0.263672 l 9.54102,-0.002 z"
       id="path8880-56" />
    <path
       style="fill:none;stroke:none;stroke-width:0.264583px;stroke-linecap:butt;stroke-linejoin:miter;stroke-opacity:1"
       d="m 167.02029,98.420579 9.54193,-0.002"
       id="path8880-2" />
    <path
       style="color:#000000;fill:#000000;-inkscape-stroke:none;stroke:none"
       d="m 177.83398,109.18945 -9.54101,0.002 v 0.26562 l 9.54101,-0.002 z"
       id="path8880-9" />
    <path
       style="color:#000000;fill:#000000;-inkscape-stroke:none;stroke:none"
       d="m 179.71875,118.00586 -9.54102,0.002 v 0.26367 l 9.54102,-0.002 z"
       id="path8880-1" />
    <path
       style="fill:#fec3b4;fill-opacity:1;stroke:none;stroke-width:0.264583px;stroke-linecap:butt;stroke-linejoin:miter;stroke-opacity:1"
       d="m 167.02029,98.420579 c 0,0 1.28774,7.242331 4.49422,6.714491 1.86897,-0.30766 2.1017,-3.65503 0.8181,-5.369837 -0.91859,-1.227194 -3.28774,-1.019344 -3.28774,-1.019344 z"
       id="path106986"
       sodipodi:nodetypes="csscc" />
    <path
       style="fill:#0d5473;fill-opacity:1;stroke:none;stroke-width:0.264583px;stroke-linecap:butt;stroke-linejoin:miter;stroke-opacity:1"
       d="m 169.04487,98.745899 c 0,0 -0.44157,1.265841 -1.77363,1.502621 -1.33205,0.23677 -2.25992,0.70865 -2.46105,0.0882 -0.20113,-0.620467 -0.15979,-1.097384 0.84652,-2.069098 1.00631,-0.971714 1.35126,-2.136358 2.73169,-2.136358 1.38043,0 0.91003,0.224317 2.26278,0 1.35275,-0.22433 0.98398,-1.260664 2.07999,0.016 1.09601,1.276681 0.97463,1.297681 1.25219,2.408135 0.27755,1.110464 0.12498,1.394904 0.52932,2.430251 0.40435,1.03536 -1.43378,1.12806 -1.91603,0.82098 -0.48225,-0.30709 0.0238,-0.78688 -1.07075,-1.47851 -1.09459,-0.691627 -2.48103,-1.582231 -2.48103,-1.582231 z"
       id="path7776" />
    <path
       style="color:#000000;fill:#000000;-inkscape-stroke:none;stroke:none"
       d="m 165.25391,83.507812 -0.26368,0.0332 6.26172,51.285154 0.26172,-0.0312 z"
       id="path9588" />
    <path
       style="color:#000000;fill:#000000;-inkscape-stroke:none;stroke:none"
       d="m 173.70508,83.607422 -0.26172,0.04102 8.43164,52.527343 0.26172,-0.043 z"
       id="path9398" />
    <path
       style="fill:#14375d;fill-opacity:1;stroke:none;stroke-width:0.264583px;stroke-linecap:butt;stroke-linejoin:miter;stroke-opacity:1"
       d="m 170.31523,134.12594 c 0,0 -1.3515,-8.58003 -0.48035,-9.81365 0.87115,-1.23362 2.40901,-3.29778 3.67511,-4.69584 1.2661,-1.39806 4.00236,-4.04771 4.00236,-4.04771 l 1.55628,-1.92828 6.29867,-1.79654 c 0,0 0.79339,3.86662 0.57345,5.85884 -0.21993,1.99222 -1.4793,4.80288 -0.23775,7.2193 1.24155,2.41642 1.63829,2.02377 2.84758,3.08502 1.20929,1.06124 2.00192,1.83799 2.00192,1.83799 0,0 -1.47472,1.56969 -2.48609,2.04613 -1.01138,0.47645 -3.40665,-1.41663 -4.62984,-3.1407 -1.22318,-1.72407 -3.24693,-2.67203 -3.24693,-4.33216 0,-1.66013 1.40783,-3.44664 -0.52852,-2.51485 -1.93634,0.93178 -4.77402,3.03399 -4.98576,4.53822 -0.21174,1.50423 -0.52496,2.88608 0.0855,4.63655 0.61049,1.75047 2.17682,2.96881 0.25005,2.96881 -1.92677,0 -4.69571,0.0789 -4.69571,0.0789 z"
       id="path8121" />
    <path
       style="fill:#fcaa82;fill-opacity:1;stroke:none;stroke-width:0.264583px;stroke-linecap:butt;stroke-linejoin:miter;stroke-opacity:1"
       d="m 158.24051,103.15611 c 0.95558,0 6.15726,0 8.64729,0 2.49003,0 2.02563,0.0299 3.08818,-0.50688 1.06256,-0.53679 1.39819,-0.42484 2.24582,-0.99878 0.84763,-0.57393 2.96176,-0.5437 4.10959,0.50813 1.14783,1.05183 3.53064,4.08335 5.35822,4.80769 1.82758,0.72433 1.60613,0.30324 2.69901,1.61193 1.09287,1.30869 1.65831,1.39799 1.65831,2.51685 0,1.11887 -0.005,1.32297 -0.13196,1.78744 -0.12711,0.46447 0.16159,0.44077 -2.85948,1.08277 -3.02108,0.642 -4.80112,0.85625 -4.80112,0.85625 0,0 -0.36861,-0.26893 -2.63103,-2.1477 -2.26243,-1.87877 -2.11498,-1.49378 -3.23174,-2.17834 -1.11676,-0.68457 -1.19331,-0.66433 -1.45029,-1.96921 -0.25699,-1.30489 0.81619,-1.79462 -0.73523,-2.06354 -1.55142,-0.26893 -2.87697,-0.0954 -6.21449,-0.31292 -3.33751,-0.21748 -5.18844,0.0577 -5.18844,0.0577 z"
       id="path7948" />
    <ellipse
       style="opacity:0.721014;fill:#0ea2d5;fill-opacity:1;stroke:none;stroke-width:0.268985;stroke-opacity:1"
       id="path115163"
       cx="21.012405"
       cy="132.92368"
       rx="1.8177173"
       ry="1.848699" />
    <ellipse
       style="display:inline;opacity:0.721014;fill:#0ea2d5;fill-opacity:1;stroke:none;stroke-width:0.268985;stroke-opacity:1"
       id="path115163-3"
       cx="35.062141"
       cy="132.81049"
       rx="1.8177173"
       ry="1.848699" />
    <path
       style="fill:#fbb745;fill-opacity:1;stroke:none;stroke-width:0.264583px;stroke-linecap:butt;stroke-linejoin:miter;stroke-opacity:1"
       d="m 39.996539,57.298933 4.416496,-2.084698 -0.872508,-2.629198 -3.384175,0.259962 z"
       id="path61294" />
  </g>
</svg>
